G04 #@! TF.GenerationSoftware,KiCad,Pcbnew,7.0.7*
G04 #@! TF.CreationDate,2024-04-25T01:55:24+02:00*
G04 #@! TF.ProjectId,autopcb,6175746f-7063-4622-9e6b-696361645f70,rev?*
G04 #@! TF.SameCoordinates,Original*
G04 #@! TF.FileFunction,Soldermask,Bot*
G04 #@! TF.FilePolarity,Negative*
%FSLAX46Y46*%
G04 Gerber Fmt 4.6, Leading zero omitted, Abs format (unit mm)*
G04 Created by KiCad (PCBNEW 7.0.7) date 2024-04-25 01:55:24*
%MOMM*%
%LPD*%
G01*
G04 APERTURE LIST*
G04 Aperture macros list*
%AMRoundRect*
0 Rectangle with rounded corners*
0 $1 Rounding radius*
0 $2 $3 $4 $5 $6 $7 $8 $9 X,Y pos of 4 corners*
0 Add a 4 corners polygon primitive as box body*
4,1,4,$2,$3,$4,$5,$6,$7,$8,$9,$2,$3,0*
0 Add four circle primitives for the rounded corners*
1,1,$1+$1,$2,$3*
1,1,$1+$1,$4,$5*
1,1,$1+$1,$6,$7*
1,1,$1+$1,$8,$9*
0 Add four rect primitives between the rounded corners*
20,1,$1+$1,$2,$3,$4,$5,0*
20,1,$1+$1,$4,$5,$6,$7,0*
20,1,$1+$1,$6,$7,$8,$9,0*
20,1,$1+$1,$8,$9,$2,$3,0*%
G04 Aperture macros list end*
%ADD10RoundRect,0.250000X0.750000X-0.600000X0.750000X0.600000X-0.750000X0.600000X-0.750000X-0.600000X0*%
%ADD11O,2.000000X1.700000*%
%ADD12RoundRect,0.250000X0.725000X-0.600000X0.725000X0.600000X-0.725000X0.600000X-0.725000X-0.600000X0*%
%ADD13O,1.950000X1.700000*%
%ADD14R,1.700000X1.700000*%
%ADD15O,1.700000X1.700000*%
%ADD16RoundRect,0.250000X0.600000X0.725000X-0.600000X0.725000X-0.600000X-0.725000X0.600000X-0.725000X0*%
%ADD17O,1.700000X1.950000*%
%ADD18RoundRect,0.250000X-0.625000X0.312500X-0.625000X-0.312500X0.625000X-0.312500X0.625000X0.312500X0*%
%ADD19RoundRect,0.250000X-0.300000X-0.300000X0.300000X-0.300000X0.300000X0.300000X-0.300000X0.300000X0*%
%ADD20RoundRect,0.150000X0.587500X0.150000X-0.587500X0.150000X-0.587500X-0.150000X0.587500X-0.150000X0*%
%ADD21RoundRect,0.250000X-0.325000X-0.650000X0.325000X-0.650000X0.325000X0.650000X-0.325000X0.650000X0*%
%ADD22RoundRect,0.250000X0.312500X0.625000X-0.312500X0.625000X-0.312500X-0.625000X0.312500X-0.625000X0*%
%ADD23RoundRect,0.250000X0.300000X-0.300000X0.300000X0.300000X-0.300000X0.300000X-0.300000X-0.300000X0*%
%ADD24R,1.600000X1.600000*%
%ADD25O,1.600000X1.600000*%
%ADD26RoundRect,0.250000X0.450000X-0.262500X0.450000X0.262500X-0.450000X0.262500X-0.450000X-0.262500X0*%
%ADD27RoundRect,0.250000X0.625000X-0.312500X0.625000X0.312500X-0.625000X0.312500X-0.625000X-0.312500X0*%
%ADD28RoundRect,0.250000X0.325000X0.650000X-0.325000X0.650000X-0.325000X-0.650000X0.325000X-0.650000X0*%
%ADD29RoundRect,0.250000X-0.312500X-0.625000X0.312500X-0.625000X0.312500X0.625000X-0.312500X0.625000X0*%
%ADD30RoundRect,0.250000X0.650000X-0.325000X0.650000X0.325000X-0.650000X0.325000X-0.650000X-0.325000X0*%
%ADD31RoundRect,0.075000X-0.650000X-0.075000X0.650000X-0.075000X0.650000X0.075000X-0.650000X0.075000X0*%
%ADD32R,1.680000X1.880000*%
%ADD33RoundRect,0.250000X-0.450000X0.262500X-0.450000X-0.262500X0.450000X-0.262500X0.450000X0.262500X0*%
%ADD34RoundRect,0.250000X-0.262500X-0.450000X0.262500X-0.450000X0.262500X0.450000X-0.262500X0.450000X0*%
%ADD35RoundRect,0.150000X-0.150000X0.587500X-0.150000X-0.587500X0.150000X-0.587500X0.150000X0.587500X0*%
%ADD36RoundRect,0.250000X0.350000X-0.850000X0.350000X0.850000X-0.350000X0.850000X-0.350000X-0.850000X0*%
%ADD37RoundRect,0.249997X2.650003X-2.950003X2.650003X2.950003X-2.650003X2.950003X-2.650003X-2.950003X0*%
%ADD38RoundRect,0.250000X0.262500X0.450000X-0.262500X0.450000X-0.262500X-0.450000X0.262500X-0.450000X0*%
%ADD39R,0.850000X0.280000*%
%ADD40R,0.280000X0.700000*%
%ADD41R,1.650000X2.400000*%
G04 APERTURE END LIST*
D10*
X170842500Y-112494500D03*
D11*
X170842500Y-109994500D03*
D10*
X149489500Y-94353500D03*
D11*
X149489500Y-91853500D03*
D12*
X140870500Y-126678500D03*
D13*
X140870500Y-124178500D03*
X140870500Y-121678500D03*
X140870500Y-119178500D03*
D12*
X131980500Y-113002500D03*
D13*
X131980500Y-110502500D03*
X131980500Y-108002500D03*
X131980500Y-105502500D03*
D14*
X158777500Y-124544500D03*
D15*
X158777500Y-127084500D03*
D12*
X131980500Y-124138500D03*
D13*
X131980500Y-121638500D03*
X131980500Y-119138500D03*
D10*
X170842500Y-104005500D03*
D11*
X170842500Y-101505500D03*
D12*
X140870500Y-99413500D03*
D13*
X140870500Y-96913500D03*
X140870500Y-94413500D03*
X140870500Y-91913500D03*
D10*
X123344500Y-94460500D03*
D11*
X123344500Y-91960500D03*
D14*
X167462500Y-124544500D03*
D15*
X167462500Y-127084500D03*
D12*
X149538500Y-116776500D03*
D13*
X149538500Y-114276500D03*
X149538500Y-111776500D03*
X149538500Y-109276500D03*
D10*
X123344500Y-103136500D03*
D11*
X123344500Y-100636500D03*
D16*
X168997000Y-79248000D03*
D17*
X166497000Y-79248000D03*
X163997000Y-79248000D03*
X161497000Y-79248000D03*
D14*
X171985500Y-124539500D03*
D15*
X171985500Y-127079500D03*
D16*
X168262500Y-94246500D03*
D17*
X165762500Y-94246500D03*
X163262500Y-94246500D03*
X160762500Y-94246500D03*
D14*
X163095500Y-124544500D03*
D15*
X163095500Y-127084500D03*
D10*
X123344500Y-111772500D03*
D11*
X123344500Y-109272500D03*
D16*
X131269500Y-131457500D03*
D17*
X128769500Y-131457500D03*
X126269500Y-131457500D03*
X123769500Y-131457500D03*
D12*
X131980500Y-99413500D03*
D13*
X131980500Y-96913500D03*
X131980500Y-94413500D03*
X131980500Y-91913500D03*
D12*
X140853500Y-112982500D03*
D13*
X140853500Y-110482500D03*
X140853500Y-107982500D03*
X140853500Y-105482500D03*
D12*
X149506500Y-127821500D03*
D13*
X149506500Y-125321500D03*
X149506500Y-122821500D03*
D10*
X149506500Y-103096500D03*
D11*
X149506500Y-100596500D03*
D10*
X123327500Y-120388500D03*
D11*
X123327500Y-117888500D03*
D18*
X156972000Y-77023500D03*
X156972000Y-79948500D03*
D19*
X134324000Y-99606000D03*
X137124000Y-99606000D03*
D20*
X153921500Y-91010500D03*
X153921500Y-92910500D03*
X152046500Y-91960500D03*
D21*
X170383500Y-129679500D03*
X173333500Y-129679500D03*
D22*
X168302500Y-107708500D03*
X165377500Y-107708500D03*
D23*
X141732000Y-90049000D03*
X141732000Y-87249000D03*
D24*
X135638100Y-133667300D03*
D25*
X138178100Y-133667300D03*
X140718100Y-133667300D03*
X143258100Y-133667300D03*
X145798100Y-133667300D03*
X148338100Y-133667300D03*
X150878100Y-133667300D03*
X153418100Y-133667300D03*
X158498100Y-133667300D03*
X161038100Y-133667300D03*
X163578100Y-133667300D03*
X166118100Y-133667300D03*
X168658100Y-133667300D03*
X171198100Y-133667300D03*
X171198100Y-85407300D03*
X168658100Y-85407300D03*
X166118100Y-85407300D03*
X163578100Y-85407300D03*
X161038100Y-85407300D03*
X158498100Y-85407300D03*
X155958100Y-85407300D03*
X153418100Y-85407300D03*
X149358100Y-85407300D03*
X146818100Y-85407300D03*
X144278100Y-85407300D03*
X141738100Y-85407300D03*
X139198100Y-85407300D03*
X136658100Y-85407300D03*
X134118100Y-85407300D03*
X131578100Y-85407300D03*
X129038100Y-85407300D03*
X126498100Y-85407300D03*
D26*
X168937500Y-103437500D03*
X168937500Y-101612500D03*
D18*
X154967500Y-104021500D03*
X154967500Y-106946500D03*
D21*
X171096500Y-115074500D03*
X174046500Y-115074500D03*
D27*
X159258000Y-79883000D03*
X159258000Y-76958000D03*
D14*
X170307000Y-71628000D03*
D15*
X170307000Y-74168000D03*
X167767000Y-71628000D03*
X167767000Y-74168000D03*
X165227000Y-71628000D03*
X165227000Y-74168000D03*
X162687000Y-71628000D03*
X162687000Y-74168000D03*
X160147000Y-71628000D03*
X160147000Y-74168000D03*
D27*
X165254500Y-126957500D03*
X165254500Y-124032500D03*
X169699500Y-127023000D03*
X169699500Y-124098000D03*
D23*
X144272000Y-90176000D03*
X144272000Y-87376000D03*
D28*
X168634500Y-129679500D03*
X165684500Y-129679500D03*
D29*
X165381500Y-119265500D03*
X168306500Y-119265500D03*
D24*
X162968500Y-110502500D03*
X162968500Y-113042500D03*
X155348500Y-113042500D03*
X155348500Y-110502500D03*
D27*
X156618500Y-127012500D03*
X156618500Y-124087500D03*
D28*
X159236500Y-129679500D03*
X156286500Y-129679500D03*
D19*
X134236000Y-113106000D03*
X137036000Y-113106000D03*
D30*
X167794500Y-99228500D03*
X167794500Y-96278500D03*
D31*
X134336000Y-97558000D03*
X134336000Y-97058000D03*
X134336000Y-96558000D03*
X134336000Y-96058000D03*
X134336000Y-95558000D03*
X138636000Y-95558000D03*
X138636000Y-96058000D03*
X138636000Y-96558000D03*
X138636000Y-97058000D03*
X138636000Y-97558000D03*
D32*
X136486000Y-96558000D03*
D28*
X163935500Y-129679500D03*
X160985500Y-129679500D03*
D27*
X160936500Y-126961500D03*
X160936500Y-124036500D03*
D22*
X155606500Y-122059500D03*
X152681500Y-122059500D03*
D31*
X134336000Y-111020000D03*
X134336000Y-110520000D03*
X134336000Y-110020000D03*
X134336000Y-109520000D03*
X134336000Y-109020000D03*
X138636000Y-109020000D03*
X138636000Y-109520000D03*
X138636000Y-110020000D03*
X138636000Y-110520000D03*
X138636000Y-111020000D03*
D32*
X136486000Y-110020000D03*
D33*
X155983500Y-90516500D03*
X155983500Y-92341500D03*
D27*
X167921500Y-113173500D03*
X167921500Y-110248500D03*
D33*
X165508500Y-97501500D03*
X165508500Y-99326500D03*
D24*
X155221500Y-119265500D03*
X155221500Y-116725500D03*
X162841500Y-116725500D03*
X162841500Y-119265500D03*
D20*
X153921500Y-99773500D03*
X153921500Y-101673500D03*
X152046500Y-100723500D03*
D34*
X152253500Y-88912500D03*
X154078500Y-88912500D03*
D35*
X156303500Y-94276500D03*
X158203500Y-94276500D03*
X157253500Y-96151500D03*
D36*
X162073500Y-107336500D03*
D37*
X159793500Y-101036500D03*
D36*
X157513500Y-107336500D03*
D38*
X154633500Y-97802500D03*
X152808500Y-97802500D03*
D39*
X167286500Y-101358500D03*
X167286500Y-101858500D03*
X167286500Y-102358500D03*
X167286500Y-102858500D03*
X167286500Y-103358500D03*
X164336500Y-103358500D03*
X164336500Y-102858500D03*
X164336500Y-102358500D03*
X164336500Y-101858500D03*
X164336500Y-101358500D03*
D40*
X166061500Y-103908500D03*
X166061500Y-100808500D03*
D41*
X165811500Y-102358500D03*
D40*
X165561500Y-103908500D03*
X165561500Y-100808500D03*
M02*
