G04 #@! TF.GenerationSoftware,KiCad,Pcbnew,7.0.7*
G04 #@! TF.CreationDate,2024-04-25T01:55:24+02:00*
G04 #@! TF.ProjectId,autopcb,6175746f-7063-4622-9e6b-696361645f70,rev?*
G04 #@! TF.SameCoordinates,Original*
G04 #@! TF.FileFunction,Paste,Bot*
G04 #@! TF.FilePolarity,Positive*
%FSLAX46Y46*%
G04 Gerber Fmt 4.6, Leading zero omitted, Abs format (unit mm)*
G04 Created by KiCad (PCBNEW 7.0.7) date 2024-04-25 01:55:24*
%MOMM*%
%LPD*%
G01*
G04 APERTURE LIST*
G04 Aperture macros list*
%AMRoundRect*
0 Rectangle with rounded corners*
0 $1 Rounding radius*
0 $2 $3 $4 $5 $6 $7 $8 $9 X,Y pos of 4 corners*
0 Add a 4 corners polygon primitive as box body*
4,1,4,$2,$3,$4,$5,$6,$7,$8,$9,$2,$3,0*
0 Add four circle primitives for the rounded corners*
1,1,$1+$1,$2,$3*
1,1,$1+$1,$4,$5*
1,1,$1+$1,$6,$7*
1,1,$1+$1,$8,$9*
0 Add four rect primitives between the rounded corners*
20,1,$1+$1,$2,$3,$4,$5,0*
20,1,$1+$1,$4,$5,$6,$7,0*
20,1,$1+$1,$6,$7,$8,$9,0*
20,1,$1+$1,$8,$9,$2,$3,0*%
G04 Aperture macros list end*
%ADD10RoundRect,0.250000X-0.625000X0.312500X-0.625000X-0.312500X0.625000X-0.312500X0.625000X0.312500X0*%
%ADD11RoundRect,0.250000X-0.300000X-0.300000X0.300000X-0.300000X0.300000X0.300000X-0.300000X0.300000X0*%
%ADD12RoundRect,0.150000X0.587500X0.150000X-0.587500X0.150000X-0.587500X-0.150000X0.587500X-0.150000X0*%
%ADD13RoundRect,0.250000X-0.325000X-0.650000X0.325000X-0.650000X0.325000X0.650000X-0.325000X0.650000X0*%
%ADD14RoundRect,0.250000X0.312500X0.625000X-0.312500X0.625000X-0.312500X-0.625000X0.312500X-0.625000X0*%
%ADD15RoundRect,0.250000X0.300000X-0.300000X0.300000X0.300000X-0.300000X0.300000X-0.300000X-0.300000X0*%
%ADD16RoundRect,0.250000X0.450000X-0.262500X0.450000X0.262500X-0.450000X0.262500X-0.450000X-0.262500X0*%
%ADD17RoundRect,0.250000X0.625000X-0.312500X0.625000X0.312500X-0.625000X0.312500X-0.625000X-0.312500X0*%
%ADD18RoundRect,0.250000X0.325000X0.650000X-0.325000X0.650000X-0.325000X-0.650000X0.325000X-0.650000X0*%
%ADD19RoundRect,0.250000X-0.312500X-0.625000X0.312500X-0.625000X0.312500X0.625000X-0.312500X0.625000X0*%
%ADD20R,1.600000X1.600000*%
%ADD21RoundRect,0.250000X0.650000X-0.325000X0.650000X0.325000X-0.650000X0.325000X-0.650000X-0.325000X0*%
%ADD22RoundRect,0.170000X-0.170000X-0.210000X0.170000X-0.210000X0.170000X0.210000X-0.170000X0.210000X0*%
%ADD23RoundRect,0.075000X-0.650000X-0.075000X0.650000X-0.075000X0.650000X0.075000X-0.650000X0.075000X0*%
%ADD24RoundRect,0.250000X-0.450000X0.262500X-0.450000X-0.262500X0.450000X-0.262500X0.450000X0.262500X0*%
%ADD25RoundRect,0.250000X-0.262500X-0.450000X0.262500X-0.450000X0.262500X0.450000X-0.262500X0.450000X0*%
%ADD26RoundRect,0.150000X-0.150000X0.587500X-0.150000X-0.587500X0.150000X-0.587500X0.150000X0.587500X0*%
%ADD27RoundRect,0.250000X0.350000X-0.850000X0.350000X0.850000X-0.350000X0.850000X-0.350000X-0.850000X0*%
%ADD28RoundRect,0.250000X1.125000X-1.275000X1.125000X1.275000X-1.125000X1.275000X-1.125000X-1.275000X0*%
%ADD29RoundRect,0.250000X0.262500X0.450000X-0.262500X0.450000X-0.262500X-0.450000X0.262500X-0.450000X0*%
%ADD30R,0.640000X0.640000*%
%ADD31R,0.850000X0.280000*%
%ADD32R,0.280000X0.700000*%
G04 APERTURE END LIST*
D10*
X156972000Y-77023500D03*
X156972000Y-79948500D03*
D11*
X134324000Y-99606000D03*
X137124000Y-99606000D03*
D12*
X153921500Y-91010500D03*
X153921500Y-92910500D03*
X152046500Y-91960500D03*
D13*
X170383500Y-129679500D03*
X173333500Y-129679500D03*
D14*
X168302500Y-107708500D03*
X165377500Y-107708500D03*
D15*
X141732000Y-90049000D03*
X141732000Y-87249000D03*
D16*
X168937500Y-103437500D03*
X168937500Y-101612500D03*
D10*
X154967500Y-104021500D03*
X154967500Y-106946500D03*
D13*
X171096500Y-115074500D03*
X174046500Y-115074500D03*
D17*
X159258000Y-79883000D03*
X159258000Y-76958000D03*
X165254500Y-126957500D03*
X165254500Y-124032500D03*
X169699500Y-127023000D03*
X169699500Y-124098000D03*
D15*
X144272000Y-90176000D03*
X144272000Y-87376000D03*
D18*
X168634500Y-129679500D03*
X165684500Y-129679500D03*
D19*
X165381500Y-119265500D03*
X168306500Y-119265500D03*
D20*
X162968500Y-110502500D03*
X162968500Y-113042500D03*
X155348500Y-113042500D03*
X155348500Y-110502500D03*
D17*
X156618500Y-127012500D03*
X156618500Y-124087500D03*
D18*
X159236500Y-129679500D03*
X156286500Y-129679500D03*
D11*
X134236000Y-113106000D03*
X137036000Y-113106000D03*
D21*
X167794500Y-99228500D03*
X167794500Y-96278500D03*
D22*
X136066000Y-96088000D03*
X136066000Y-97028000D03*
X136906000Y-96088000D03*
X136906000Y-97028000D03*
D23*
X134336000Y-97558000D03*
X134336000Y-97058000D03*
X134336000Y-96558000D03*
X134336000Y-96058000D03*
X134336000Y-95558000D03*
X138636000Y-95558000D03*
X138636000Y-96058000D03*
X138636000Y-96558000D03*
X138636000Y-97058000D03*
X138636000Y-97558000D03*
D18*
X163935500Y-129679500D03*
X160985500Y-129679500D03*
D17*
X160936500Y-126961500D03*
X160936500Y-124036500D03*
D14*
X155606500Y-122059500D03*
X152681500Y-122059500D03*
D22*
X136066000Y-109550000D03*
X136066000Y-110490000D03*
X136906000Y-109550000D03*
X136906000Y-110490000D03*
D23*
X134336000Y-111020000D03*
X134336000Y-110520000D03*
X134336000Y-110020000D03*
X134336000Y-109520000D03*
X134336000Y-109020000D03*
X138636000Y-109020000D03*
X138636000Y-109520000D03*
X138636000Y-110020000D03*
X138636000Y-110520000D03*
X138636000Y-111020000D03*
D24*
X155983500Y-90516500D03*
X155983500Y-92341500D03*
D17*
X167921500Y-113173500D03*
X167921500Y-110248500D03*
D24*
X165508500Y-97501500D03*
X165508500Y-99326500D03*
D20*
X155221500Y-119265500D03*
X155221500Y-116725500D03*
X162841500Y-116725500D03*
X162841500Y-119265500D03*
D12*
X153921500Y-99773500D03*
X153921500Y-101673500D03*
X152046500Y-100723500D03*
D25*
X152253500Y-88912500D03*
X154078500Y-88912500D03*
D26*
X156303500Y-94276500D03*
X158203500Y-94276500D03*
X157253500Y-96151500D03*
D27*
X162073500Y-107336500D03*
D28*
X158268500Y-102711500D03*
X161318500Y-102711500D03*
X158268500Y-99361500D03*
X161318500Y-99361500D03*
D27*
X157513500Y-107336500D03*
D29*
X154633500Y-97802500D03*
X152808500Y-97802500D03*
D30*
X166291500Y-103218500D03*
X166291500Y-102358500D03*
X166291500Y-101498500D03*
X165331500Y-103218500D03*
X165331500Y-102358500D03*
X165331500Y-101498500D03*
D31*
X167286500Y-101358500D03*
X167286500Y-101858500D03*
X167286500Y-102358500D03*
X167286500Y-102858500D03*
X167286500Y-103358500D03*
X164336500Y-103358500D03*
X164336500Y-102858500D03*
X164336500Y-102358500D03*
X164336500Y-101858500D03*
X164336500Y-101358500D03*
D32*
X166061500Y-103908500D03*
X166061500Y-100808500D03*
X165561500Y-103908500D03*
X165561500Y-100808500D03*
M02*
