G04 #@! TF.GenerationSoftware,KiCad,Pcbnew,7.0.7*
G04 #@! TF.CreationDate,2024-04-25T01:55:24+02:00*
G04 #@! TF.ProjectId,autopcb,6175746f-7063-4622-9e6b-696361645f70,rev?*
G04 #@! TF.SameCoordinates,Original*
G04 #@! TF.FileFunction,Soldermask,Top*
G04 #@! TF.FilePolarity,Negative*
%FSLAX46Y46*%
G04 Gerber Fmt 4.6, Leading zero omitted, Abs format (unit mm)*
G04 Created by KiCad (PCBNEW 7.0.7) date 2024-04-25 01:55:24*
%MOMM*%
%LPD*%
G01*
G04 APERTURE LIST*
G04 Aperture macros list*
%AMRoundRect*
0 Rectangle with rounded corners*
0 $1 Rounding radius*
0 $2 $3 $4 $5 $6 $7 $8 $9 X,Y pos of 4 corners*
0 Add a 4 corners polygon primitive as box body*
4,1,4,$2,$3,$4,$5,$6,$7,$8,$9,$2,$3,0*
0 Add four circle primitives for the rounded corners*
1,1,$1+$1,$2,$3*
1,1,$1+$1,$4,$5*
1,1,$1+$1,$6,$7*
1,1,$1+$1,$8,$9*
0 Add four rect primitives between the rounded corners*
20,1,$1+$1,$2,$3,$4,$5,0*
20,1,$1+$1,$4,$5,$6,$7,0*
20,1,$1+$1,$6,$7,$8,$9,0*
20,1,$1+$1,$8,$9,$2,$3,0*%
G04 Aperture macros list end*
%ADD10RoundRect,0.250000X0.750000X-0.600000X0.750000X0.600000X-0.750000X0.600000X-0.750000X-0.600000X0*%
%ADD11O,2.000000X1.700000*%
%ADD12RoundRect,0.250000X0.725000X-0.600000X0.725000X0.600000X-0.725000X0.600000X-0.725000X-0.600000X0*%
%ADD13O,1.950000X1.700000*%
%ADD14R,1.700000X1.700000*%
%ADD15O,1.700000X1.700000*%
%ADD16RoundRect,0.250000X0.600000X0.725000X-0.600000X0.725000X-0.600000X-0.725000X0.600000X-0.725000X0*%
%ADD17O,1.700000X1.950000*%
%ADD18R,1.600000X1.600000*%
%ADD19O,1.600000X1.600000*%
G04 APERTURE END LIST*
D10*
X170842500Y-112494500D03*
D11*
X170842500Y-109994500D03*
D10*
X149489500Y-94353500D03*
D11*
X149489500Y-91853500D03*
D12*
X140870500Y-126678500D03*
D13*
X140870500Y-124178500D03*
X140870500Y-121678500D03*
X140870500Y-119178500D03*
D12*
X131980500Y-113002500D03*
D13*
X131980500Y-110502500D03*
X131980500Y-108002500D03*
X131980500Y-105502500D03*
D14*
X158777500Y-124544500D03*
D15*
X158777500Y-127084500D03*
D12*
X131980500Y-124138500D03*
D13*
X131980500Y-121638500D03*
X131980500Y-119138500D03*
D10*
X170842500Y-104005500D03*
D11*
X170842500Y-101505500D03*
D12*
X140870500Y-99413500D03*
D13*
X140870500Y-96913500D03*
X140870500Y-94413500D03*
X140870500Y-91913500D03*
D10*
X123344500Y-94460500D03*
D11*
X123344500Y-91960500D03*
D14*
X167462500Y-124544500D03*
D15*
X167462500Y-127084500D03*
D12*
X149538500Y-116776500D03*
D13*
X149538500Y-114276500D03*
X149538500Y-111776500D03*
X149538500Y-109276500D03*
D10*
X123344500Y-103136500D03*
D11*
X123344500Y-100636500D03*
D16*
X168997000Y-79248000D03*
D17*
X166497000Y-79248000D03*
X163997000Y-79248000D03*
X161497000Y-79248000D03*
D14*
X171985500Y-124539500D03*
D15*
X171985500Y-127079500D03*
D16*
X168262500Y-94246500D03*
D17*
X165762500Y-94246500D03*
X163262500Y-94246500D03*
X160762500Y-94246500D03*
D14*
X163095500Y-124544500D03*
D15*
X163095500Y-127084500D03*
D10*
X123344500Y-111772500D03*
D11*
X123344500Y-109272500D03*
D16*
X131269500Y-131457500D03*
D17*
X128769500Y-131457500D03*
X126269500Y-131457500D03*
X123769500Y-131457500D03*
D12*
X131980500Y-99413500D03*
D13*
X131980500Y-96913500D03*
X131980500Y-94413500D03*
X131980500Y-91913500D03*
D12*
X140853500Y-112982500D03*
D13*
X140853500Y-110482500D03*
X140853500Y-107982500D03*
X140853500Y-105482500D03*
D12*
X149506500Y-127821500D03*
D13*
X149506500Y-125321500D03*
X149506500Y-122821500D03*
D10*
X149506500Y-103096500D03*
D11*
X149506500Y-100596500D03*
D10*
X123327500Y-120388500D03*
D11*
X123327500Y-117888500D03*
D18*
X135638100Y-133667300D03*
D19*
X138178100Y-133667300D03*
X140718100Y-133667300D03*
X143258100Y-133667300D03*
X145798100Y-133667300D03*
X148338100Y-133667300D03*
X150878100Y-133667300D03*
X153418100Y-133667300D03*
X158498100Y-133667300D03*
X161038100Y-133667300D03*
X163578100Y-133667300D03*
X166118100Y-133667300D03*
X168658100Y-133667300D03*
X171198100Y-133667300D03*
X171198100Y-85407300D03*
X168658100Y-85407300D03*
X166118100Y-85407300D03*
X163578100Y-85407300D03*
X161038100Y-85407300D03*
X158498100Y-85407300D03*
X155958100Y-85407300D03*
X153418100Y-85407300D03*
X149358100Y-85407300D03*
X146818100Y-85407300D03*
X144278100Y-85407300D03*
X141738100Y-85407300D03*
X139198100Y-85407300D03*
X136658100Y-85407300D03*
X134118100Y-85407300D03*
X131578100Y-85407300D03*
X129038100Y-85407300D03*
X126498100Y-85407300D03*
D14*
X170307000Y-71628000D03*
D15*
X170307000Y-74168000D03*
X167767000Y-71628000D03*
X167767000Y-74168000D03*
X165227000Y-71628000D03*
X165227000Y-74168000D03*
X162687000Y-71628000D03*
X162687000Y-74168000D03*
X160147000Y-71628000D03*
X160147000Y-74168000D03*
M02*
