%TF.GenerationSoftware,KiCad,Pcbnew,7.0.7*%
%TF.CreationDate,2024-04-25T01:55:27+02:00*%
%TF.ProjectId,autopcb,6175746f-7063-4622-9e6b-696361645f70,rev?*%
%TF.SameCoordinates,Original*%
%TF.FileFunction,Drillmap*%
%TF.FilePolarity,Positive*%
%FSLAX45Y45*%
G04 Gerber Fmt 4.5, Leading zero omitted, Abs format (unit mm)*
G04 Created by KiCad (PCBNEW 7.0.7) date 2024-04-25 01:55:27*
%MOMM*%
%LPD*%
G01*
G04 APERTURE LIST*
%ADD10C,0.100000*%
%ADD11C,0.200000*%
G04 APERTURE END LIST*
D10*
X16992600Y-8216900D02*
X16992600Y-8293100D01*
X17627600Y-9842500D02*
X17627600Y-13119100D01*
X15582900Y-6959600D02*
X15582900Y-8216900D01*
X16040100Y-8293100D02*
X16040100Y-8216900D01*
X17373600Y-8445500D02*
X17373600Y-9588500D01*
X17627600Y-13119100D02*
X17373600Y-13373100D01*
X16040100Y-8216900D02*
X16776700Y-8216900D01*
X16992600Y-8293100D02*
X17221200Y-8293100D01*
X16776700Y-8293100D02*
X16776700Y-8216900D01*
X15836900Y-8293100D02*
X12026900Y-8293100D01*
X17373600Y-9588500D02*
X17627600Y-9842500D01*
X17373600Y-8445500D02*
X17221200Y-8293100D01*
X17373600Y-13627100D02*
X12585700Y-13627100D01*
X17208500Y-8216900D02*
X16992600Y-8216900D01*
X12026900Y-8293100D02*
X12026900Y-13627100D01*
X17208500Y-6959600D02*
X15582900Y-6959600D01*
X17208500Y-8216900D02*
X17208500Y-6959600D01*
X15836900Y-8216900D02*
X15582900Y-8216900D01*
X12026900Y-13627100D02*
X12585700Y-13627100D01*
X16776700Y-8293100D02*
X16040100Y-8293100D01*
X17373600Y-13373100D02*
X17373600Y-13627100D01*
X15836900Y-8216900D02*
X15836900Y-8293100D01*
D11*
X12282677Y-13943584D02*
X12282677Y-13743584D01*
X12282677Y-13743584D02*
X12330296Y-13743584D01*
X12330296Y-13743584D02*
X12358867Y-13753108D01*
X12358867Y-13753108D02*
X12377915Y-13772155D01*
X12377915Y-13772155D02*
X12387439Y-13791203D01*
X12387439Y-13791203D02*
X12396962Y-13829298D01*
X12396962Y-13829298D02*
X12396962Y-13857869D01*
X12396962Y-13857869D02*
X12387439Y-13895965D01*
X12387439Y-13895965D02*
X12377915Y-13915012D01*
X12377915Y-13915012D02*
X12358867Y-13934060D01*
X12358867Y-13934060D02*
X12330296Y-13943584D01*
X12330296Y-13943584D02*
X12282677Y-13943584D01*
X12482677Y-13943584D02*
X12482677Y-13810250D01*
X12482677Y-13848346D02*
X12492201Y-13829298D01*
X12492201Y-13829298D02*
X12501724Y-13819774D01*
X12501724Y-13819774D02*
X12520772Y-13810250D01*
X12520772Y-13810250D02*
X12539820Y-13810250D01*
X12606486Y-13943584D02*
X12606486Y-13810250D01*
X12606486Y-13743584D02*
X12596962Y-13753108D01*
X12596962Y-13753108D02*
X12606486Y-13762631D01*
X12606486Y-13762631D02*
X12616010Y-13753108D01*
X12616010Y-13753108D02*
X12606486Y-13743584D01*
X12606486Y-13743584D02*
X12606486Y-13762631D01*
X12730296Y-13943584D02*
X12711248Y-13934060D01*
X12711248Y-13934060D02*
X12701724Y-13915012D01*
X12701724Y-13915012D02*
X12701724Y-13743584D01*
X12835058Y-13943584D02*
X12816010Y-13934060D01*
X12816010Y-13934060D02*
X12806486Y-13915012D01*
X12806486Y-13915012D02*
X12806486Y-13743584D01*
X13063629Y-13943584D02*
X13063629Y-13743584D01*
X13063629Y-13743584D02*
X13130296Y-13886441D01*
X13130296Y-13886441D02*
X13196962Y-13743584D01*
X13196962Y-13743584D02*
X13196962Y-13943584D01*
X13377915Y-13943584D02*
X13377915Y-13838822D01*
X13377915Y-13838822D02*
X13368391Y-13819774D01*
X13368391Y-13819774D02*
X13349343Y-13810250D01*
X13349343Y-13810250D02*
X13311248Y-13810250D01*
X13311248Y-13810250D02*
X13292201Y-13819774D01*
X13377915Y-13934060D02*
X13358867Y-13943584D01*
X13358867Y-13943584D02*
X13311248Y-13943584D01*
X13311248Y-13943584D02*
X13292201Y-13934060D01*
X13292201Y-13934060D02*
X13282677Y-13915012D01*
X13282677Y-13915012D02*
X13282677Y-13895965D01*
X13282677Y-13895965D02*
X13292201Y-13876917D01*
X13292201Y-13876917D02*
X13311248Y-13867393D01*
X13311248Y-13867393D02*
X13358867Y-13867393D01*
X13358867Y-13867393D02*
X13377915Y-13857869D01*
X13473153Y-13810250D02*
X13473153Y-14010250D01*
X13473153Y-13819774D02*
X13492201Y-13810250D01*
X13492201Y-13810250D02*
X13530296Y-13810250D01*
X13530296Y-13810250D02*
X13549343Y-13819774D01*
X13549343Y-13819774D02*
X13558867Y-13829298D01*
X13558867Y-13829298D02*
X13568391Y-13848346D01*
X13568391Y-13848346D02*
X13568391Y-13905488D01*
X13568391Y-13905488D02*
X13558867Y-13924536D01*
X13558867Y-13924536D02*
X13549343Y-13934060D01*
X13549343Y-13934060D02*
X13530296Y-13943584D01*
X13530296Y-13943584D02*
X13492201Y-13943584D01*
X13492201Y-13943584D02*
X13473153Y-13934060D01*
X13654105Y-13924536D02*
X13663629Y-13934060D01*
X13663629Y-13934060D02*
X13654105Y-13943584D01*
X13654105Y-13943584D02*
X13644582Y-13934060D01*
X13644582Y-13934060D02*
X13654105Y-13924536D01*
X13654105Y-13924536D02*
X13654105Y-13943584D01*
X13654105Y-13819774D02*
X13663629Y-13829298D01*
X13663629Y-13829298D02*
X13654105Y-13838822D01*
X13654105Y-13838822D02*
X13644582Y-13829298D01*
X13644582Y-13829298D02*
X13654105Y-13819774D01*
X13654105Y-13819774D02*
X13654105Y-13838822D01*
M02*
