%TF.GenerationSoftware,KiCad,Pcbnew,7.0.7*%
%TF.CreationDate,2024-04-25T01:55:27+02:00*%
%TF.ProjectId,autopcb,6175746f-7063-4622-9e6b-696361645f70,rev?*%
%TF.SameCoordinates,Original*%
%TF.FileFunction,Drillmap*%
%TF.FilePolarity,Positive*%
%FSLAX45Y45*%
G04 Gerber Fmt 4.5, Leading zero omitted, Abs format (unit mm)*
G04 Created by KiCad (PCBNEW 7.0.7) date 2024-04-25 01:55:27*
%MOMM*%
%LPD*%
G01*
G04 APERTURE LIST*
%ADD10C,0.100000*%
%ADD11C,0.200000*%
%ADD12C,0.030000*%
%ADD13C,0.040000*%
%ADD14C,0.095000*%
G04 APERTURE END LIST*
D10*
X16992600Y-8216900D02*
X16992600Y-8293100D01*
X17627600Y-9842500D02*
X17627600Y-13119100D01*
X15582900Y-6959600D02*
X15582900Y-8216900D01*
X16040100Y-8293100D02*
X16040100Y-8216900D01*
X17373600Y-8445500D02*
X17373600Y-9588500D01*
X17627600Y-13119100D02*
X17373600Y-13373100D01*
X16040100Y-8216900D02*
X16776700Y-8216900D01*
X16992600Y-8293100D02*
X17221200Y-8293100D01*
X16776700Y-8293100D02*
X16776700Y-8216900D01*
X15836900Y-8293100D02*
X12026900Y-8293100D01*
X17373600Y-9588500D02*
X17627600Y-9842500D01*
X17373600Y-8445500D02*
X17221200Y-8293100D01*
X17373600Y-13627100D02*
X12585700Y-13627100D01*
X17208500Y-8216900D02*
X16992600Y-8216900D01*
X12026900Y-8293100D02*
X12026900Y-13627100D01*
X17208500Y-6959600D02*
X15582900Y-6959600D01*
X17208500Y-8216900D02*
X17208500Y-6959600D01*
X15836900Y-8216900D02*
X15582900Y-8216900D01*
X12026900Y-13627100D02*
X12585700Y-13627100D01*
X16776700Y-8293100D02*
X16040100Y-8293100D01*
X17373600Y-13373100D02*
X17373600Y-13627100D01*
X15836900Y-8216900D02*
X15836900Y-8293100D01*
D11*
D12*
X16518150Y-10134850D02*
X16548150Y-10164850D01*
X16548150Y-10134850D02*
X16518150Y-10164850D01*
X16518150Y-10306850D02*
X16548150Y-10336850D01*
X16548150Y-10306850D02*
X16518150Y-10336850D01*
X16566150Y-10220850D02*
X16596150Y-10250850D01*
X16596150Y-10220850D02*
X16566150Y-10250850D01*
X16614150Y-10134850D02*
X16644150Y-10164850D01*
X16644150Y-10134850D02*
X16614150Y-10164850D01*
X16614150Y-10306850D02*
X16644150Y-10336850D01*
X16644150Y-10306850D02*
X16614150Y-10336850D01*
D13*
X12570350Y-9323050D02*
G75*
G03*
X12570350Y-9323050I-20000J0D01*
G01*
X12859700Y-10401300D02*
G75*
G03*
X12859700Y-10401300I-20000J0D01*
G01*
X12899900Y-9381550D02*
G75*
G03*
X12899900Y-9381550I-20000J0D01*
G01*
X13129800Y-10084802D02*
G75*
G03*
X13129800Y-10084802I-20000J0D01*
G01*
X13129800Y-10388600D02*
G75*
G03*
X13129800Y-10388600I-20000J0D01*
G01*
X13418500Y-9398000D02*
G75*
G03*
X13418500Y-9398000I-20000J0D01*
G01*
X13774100Y-10680700D02*
G75*
G03*
X13774100Y-10680700I-20000J0D01*
G01*
X13799500Y-8788400D02*
G75*
G03*
X13799500Y-8788400I-20000J0D01*
G01*
X13926500Y-9931400D02*
G75*
G03*
X13926500Y-9931400I-20000J0D01*
G01*
X14533770Y-9196050D02*
G75*
G03*
X14533770Y-9196050I-20000J0D01*
G01*
X14576950Y-8434050D02*
G75*
G03*
X14576950Y-8434050I-20000J0D01*
G01*
X15018700Y-8763000D02*
G75*
G03*
X15018700Y-8763000I-20000J0D01*
G01*
X15094900Y-9740900D02*
G75*
G03*
X15094900Y-9740900I-20000J0D01*
G01*
X15374510Y-10537170D02*
G75*
G03*
X15374510Y-10537170I-20000J0D01*
G01*
X15514210Y-10069810D02*
G75*
G03*
X15514210Y-10069810I-20000J0D01*
G01*
X15529450Y-9399250D02*
G75*
G03*
X15529450Y-9399250I-20000J0D01*
G01*
X15554850Y-10275550D02*
G75*
G03*
X15554850Y-10275550I-20000J0D01*
G01*
X15564800Y-8851900D02*
G75*
G03*
X15564800Y-8851900I-20000J0D01*
G01*
X15745350Y-9399250D02*
G75*
G03*
X15745350Y-9399250I-20000J0D01*
G01*
X15770750Y-12853650D02*
G75*
G03*
X15770750Y-12853650I-20000J0D01*
G01*
X16019670Y-10501610D02*
G75*
G03*
X16019670Y-10501610I-20000J0D01*
G01*
X16192390Y-12264370D02*
G75*
G03*
X16192390Y-12264370I-20000J0D01*
G01*
X16220330Y-9541490D02*
G75*
G03*
X16220330Y-9541490I-20000J0D01*
G01*
X16253350Y-12853650D02*
G75*
G03*
X16253350Y-12853650I-20000J0D01*
G01*
X16431150Y-9208750D02*
G75*
G03*
X16431150Y-9208750I-20000J0D01*
G01*
X16682400Y-8928100D02*
G75*
G03*
X16682400Y-8928100I-20000J0D01*
G01*
X16697850Y-12853650D02*
G75*
G03*
X16697850Y-12853650I-20000J0D01*
G01*
X16735950Y-10440650D02*
G75*
G03*
X16735950Y-10440650I-20000J0D01*
G01*
X16758600Y-9004300D02*
G75*
G03*
X16758600Y-9004300I-20000J0D01*
G01*
X16761350Y-11751290D02*
G75*
G03*
X16761350Y-11751290I-20000J0D01*
G01*
X16964550Y-10770850D02*
G75*
G03*
X16964550Y-10770850I-20000J0D01*
G01*
D14*
X12376950Y-13098250D02*
X12376950Y-13193250D01*
X12329450Y-13145750D02*
X12424450Y-13145750D01*
X12626950Y-13098250D02*
X12626950Y-13193250D01*
X12579450Y-13145750D02*
X12674450Y-13145750D01*
X12876950Y-13098250D02*
X12876950Y-13193250D01*
X12829450Y-13145750D02*
X12924450Y-13145750D01*
X13126950Y-13098250D02*
X13126950Y-13193250D01*
X13079450Y-13145750D02*
X13174450Y-13145750D01*
X13198050Y-9143850D02*
X13198050Y-9238850D01*
X13150550Y-9191350D02*
X13245550Y-9191350D01*
X13198050Y-9393850D02*
X13198050Y-9488850D01*
X13150550Y-9441350D02*
X13245550Y-9441350D01*
X13198050Y-9643850D02*
X13198050Y-9738850D01*
X13150550Y-9691350D02*
X13245550Y-9691350D01*
X13198050Y-9893850D02*
X13198050Y-9988850D01*
X13150550Y-9941350D02*
X13245550Y-9941350D01*
X13198050Y-10502750D02*
X13198050Y-10597750D01*
X13150550Y-10550250D02*
X13245550Y-10550250D01*
X13198050Y-10752750D02*
X13198050Y-10847750D01*
X13150550Y-10800250D02*
X13245550Y-10800250D01*
X13198050Y-11002750D02*
X13198050Y-11097750D01*
X13150550Y-11050250D02*
X13245550Y-11050250D01*
X13198050Y-11252750D02*
X13198050Y-11347750D01*
X13150550Y-11300250D02*
X13245550Y-11300250D01*
X13198050Y-11866350D02*
X13198050Y-11961350D01*
X13150550Y-11913850D02*
X13245550Y-11913850D01*
X13198050Y-12116350D02*
X13198050Y-12211350D01*
X13150550Y-12163850D02*
X13245550Y-12163850D01*
X13198050Y-12366350D02*
X13198050Y-12461350D01*
X13150550Y-12413850D02*
X13245550Y-12413850D01*
X14085350Y-10500750D02*
X14085350Y-10595750D01*
X14037850Y-10548250D02*
X14132850Y-10548250D01*
X14085350Y-10750750D02*
X14085350Y-10845750D01*
X14037850Y-10798250D02*
X14132850Y-10798250D01*
X14085350Y-11000750D02*
X14085350Y-11095750D01*
X14037850Y-11048250D02*
X14132850Y-11048250D01*
X14085350Y-11250750D02*
X14085350Y-11345750D01*
X14037850Y-11298250D02*
X14132850Y-11298250D01*
X14087050Y-9143850D02*
X14087050Y-9238850D01*
X14039550Y-9191350D02*
X14134550Y-9191350D01*
X14087050Y-9393850D02*
X14087050Y-9488850D01*
X14039550Y-9441350D02*
X14134550Y-9441350D01*
X14087050Y-9643850D02*
X14087050Y-9738850D01*
X14039550Y-9691350D02*
X14134550Y-9691350D01*
X14087050Y-9893850D02*
X14087050Y-9988850D01*
X14039550Y-9941350D02*
X14134550Y-9941350D01*
X14087050Y-11870350D02*
X14087050Y-11965350D01*
X14039550Y-11917850D02*
X14134550Y-11917850D01*
X14087050Y-12120350D02*
X14087050Y-12215350D01*
X14039550Y-12167850D02*
X14134550Y-12167850D01*
X14087050Y-12370350D02*
X14087050Y-12465350D01*
X14039550Y-12417850D02*
X14134550Y-12417850D01*
X14087050Y-12620350D02*
X14087050Y-12715350D01*
X14039550Y-12667850D02*
X14134550Y-12667850D01*
X14950650Y-12234650D02*
X14950650Y-12329650D01*
X14903150Y-12282150D02*
X14998150Y-12282150D01*
X14950650Y-12484650D02*
X14950650Y-12579650D01*
X14903150Y-12532150D02*
X14998150Y-12532150D01*
X14950650Y-12734650D02*
X14950650Y-12829650D01*
X14903150Y-12782150D02*
X14998150Y-12782150D01*
X14953850Y-10880150D02*
X14953850Y-10975150D01*
X14906350Y-10927650D02*
X15001350Y-10927650D01*
X14953850Y-11130150D02*
X14953850Y-11225150D01*
X14906350Y-11177650D02*
X15001350Y-11177650D01*
X14953850Y-11380150D02*
X14953850Y-11475150D01*
X14906350Y-11427650D02*
X15001350Y-11427650D01*
X14953850Y-11630150D02*
X14953850Y-11725150D01*
X14906350Y-11677650D02*
X15001350Y-11677650D01*
X16076250Y-9377150D02*
X16076250Y-9472150D01*
X16028750Y-9424650D02*
X16123750Y-9424650D01*
X16149700Y-7877300D02*
X16149700Y-7972300D01*
X16102200Y-7924800D02*
X16197200Y-7924800D01*
X16326250Y-9377150D02*
X16326250Y-9472150D01*
X16278750Y-9424650D02*
X16373750Y-9424650D01*
X16399700Y-7877300D02*
X16399700Y-7972300D01*
X16352200Y-7924800D02*
X16447200Y-7924800D01*
X16576250Y-9377150D02*
X16576250Y-9472150D01*
X16528750Y-9424650D02*
X16623750Y-9424650D01*
X16649700Y-7877300D02*
X16649700Y-7972300D01*
X16602200Y-7924800D02*
X16697200Y-7924800D01*
X16826250Y-9377150D02*
X16826250Y-9472150D01*
X16778750Y-9424650D02*
X16873750Y-9424650D01*
X16899700Y-7877300D02*
X16899700Y-7972300D01*
X16852200Y-7924800D02*
X16947200Y-7924800D01*
D10*
X12368106Y-11824206D02*
X12368106Y-11753494D01*
X12297394Y-11753494D01*
X12297394Y-11824206D01*
X12368106Y-11824206D01*
X12368106Y-12074206D02*
X12368106Y-12003494D01*
X12297394Y-12003494D01*
X12297394Y-12074206D01*
X12368106Y-12074206D01*
X12369806Y-9231406D02*
X12369806Y-9160694D01*
X12299094Y-9160694D01*
X12299094Y-9231406D01*
X12369806Y-9231406D01*
X12369806Y-9481406D02*
X12369806Y-9410694D01*
X12299094Y-9410694D01*
X12299094Y-9481406D01*
X12369806Y-9481406D01*
X12369806Y-10099006D02*
X12369806Y-10028294D01*
X12299094Y-10028294D01*
X12299094Y-10099006D01*
X12369806Y-10099006D01*
X12369806Y-10349006D02*
X12369806Y-10278294D01*
X12299094Y-10278294D01*
X12299094Y-10349006D01*
X12369806Y-10349006D01*
X12369806Y-10962606D02*
X12369806Y-10891894D01*
X12299094Y-10891894D01*
X12299094Y-10962606D01*
X12369806Y-10962606D01*
X12369806Y-11212606D02*
X12369806Y-11141894D01*
X12299094Y-11141894D01*
X12299094Y-11212606D01*
X12369806Y-11212606D01*
X12685166Y-8576086D02*
X12685166Y-8505374D01*
X12614454Y-8505374D01*
X12614454Y-8576086D01*
X12685166Y-8576086D01*
X12939166Y-8576086D02*
X12939166Y-8505374D01*
X12868454Y-8505374D01*
X12868454Y-8576086D01*
X12939166Y-8576086D01*
X13193166Y-8576086D02*
X13193166Y-8505374D01*
X13122454Y-8505374D01*
X13122454Y-8576086D01*
X13193166Y-8576086D01*
X13447166Y-8576086D02*
X13447166Y-8505374D01*
X13376454Y-8505374D01*
X13376454Y-8576086D01*
X13447166Y-8576086D01*
X13599166Y-13402086D02*
X13599166Y-13331374D01*
X13528454Y-13331374D01*
X13528454Y-13402086D01*
X13599166Y-13402086D01*
X13701166Y-8576086D02*
X13701166Y-8505374D01*
X13630454Y-8505374D01*
X13630454Y-8576086D01*
X13701166Y-8576086D01*
X13853166Y-13402086D02*
X13853166Y-13331374D01*
X13782454Y-13331374D01*
X13782454Y-13402086D01*
X13853166Y-13402086D01*
X13955166Y-8576086D02*
X13955166Y-8505374D01*
X13884454Y-8505374D01*
X13884454Y-8576086D01*
X13955166Y-8576086D01*
X14107166Y-13402086D02*
X14107166Y-13331374D01*
X14036454Y-13331374D01*
X14036454Y-13402086D01*
X14107166Y-13402086D01*
X14209166Y-8576086D02*
X14209166Y-8505374D01*
X14138454Y-8505374D01*
X14138454Y-8576086D01*
X14209166Y-8576086D01*
X14361166Y-13402086D02*
X14361166Y-13331374D01*
X14290454Y-13331374D01*
X14290454Y-13402086D01*
X14361166Y-13402086D01*
X14463166Y-8576086D02*
X14463166Y-8505374D01*
X14392454Y-8505374D01*
X14392454Y-8576086D01*
X14463166Y-8576086D01*
X14615166Y-13402086D02*
X14615166Y-13331374D01*
X14544454Y-13331374D01*
X14544454Y-13402086D01*
X14615166Y-13402086D01*
X14717166Y-8576086D02*
X14717166Y-8505374D01*
X14646454Y-8505374D01*
X14646454Y-8576086D01*
X14717166Y-8576086D01*
X14869166Y-13402086D02*
X14869166Y-13331374D01*
X14798454Y-13331374D01*
X14798454Y-13402086D01*
X14869166Y-13402086D01*
X14971166Y-8576086D02*
X14971166Y-8505374D01*
X14900454Y-8505374D01*
X14900454Y-8576086D01*
X14971166Y-8576086D01*
X14984306Y-9220706D02*
X14984306Y-9149994D01*
X14913594Y-9149994D01*
X14913594Y-9220706D01*
X14984306Y-9220706D01*
X14984306Y-9470706D02*
X14984306Y-9399994D01*
X14913594Y-9399994D01*
X14913594Y-9470706D01*
X14984306Y-9470706D01*
X14986006Y-10095006D02*
X14986006Y-10024294D01*
X14915294Y-10024294D01*
X14915294Y-10095006D01*
X14986006Y-10095006D01*
X14986006Y-10345006D02*
X14986006Y-10274294D01*
X14915294Y-10274294D01*
X14915294Y-10345006D01*
X14986006Y-10345006D01*
X15123166Y-13402086D02*
X15123166Y-13331374D01*
X15052454Y-13331374D01*
X15052454Y-13402086D01*
X15123166Y-13402086D01*
X15377166Y-8576086D02*
X15377166Y-8505374D01*
X15306454Y-8505374D01*
X15306454Y-8576086D01*
X15377166Y-8576086D01*
X15377166Y-13402086D02*
X15377166Y-13331374D01*
X15306454Y-13331374D01*
X15306454Y-13402086D01*
X15377166Y-13402086D01*
X15631166Y-8576086D02*
X15631166Y-8505374D01*
X15560454Y-8505374D01*
X15560454Y-8576086D01*
X15631166Y-8576086D01*
X15885166Y-8576086D02*
X15885166Y-8505374D01*
X15814454Y-8505374D01*
X15814454Y-8576086D01*
X15885166Y-8576086D01*
X15885166Y-13402086D02*
X15885166Y-13331374D01*
X15814454Y-13331374D01*
X15814454Y-13402086D01*
X15885166Y-13402086D01*
X15913106Y-12489806D02*
X15913106Y-12419094D01*
X15842394Y-12419094D01*
X15842394Y-12489806D01*
X15913106Y-12489806D01*
X15913106Y-12743806D02*
X15913106Y-12673094D01*
X15842394Y-12673094D01*
X15842394Y-12743806D01*
X15913106Y-12743806D01*
X16050056Y-7198156D02*
X16050056Y-7127444D01*
X15979344Y-7127444D01*
X15979344Y-7198156D01*
X16050056Y-7198156D01*
X16050056Y-7452156D02*
X16050056Y-7381444D01*
X15979344Y-7381444D01*
X15979344Y-7452156D01*
X16050056Y-7452156D01*
X16139166Y-8576086D02*
X16139166Y-8505374D01*
X16068454Y-8505374D01*
X16068454Y-8576086D01*
X16139166Y-8576086D01*
X16139166Y-13402086D02*
X16139166Y-13331374D01*
X16068454Y-13331374D01*
X16068454Y-13402086D01*
X16139166Y-13402086D01*
X16304056Y-7198156D02*
X16304056Y-7127444D01*
X16233344Y-7127444D01*
X16233344Y-7198156D01*
X16304056Y-7198156D01*
X16304056Y-7452156D02*
X16304056Y-7381444D01*
X16233344Y-7381444D01*
X16233344Y-7452156D01*
X16304056Y-7452156D01*
X16344906Y-12489806D02*
X16344906Y-12419094D01*
X16274194Y-12419094D01*
X16274194Y-12489806D01*
X16344906Y-12489806D01*
X16344906Y-12743806D02*
X16344906Y-12673094D01*
X16274194Y-12673094D01*
X16274194Y-12743806D01*
X16344906Y-12743806D01*
X16393166Y-8576086D02*
X16393166Y-8505374D01*
X16322454Y-8505374D01*
X16322454Y-8576086D01*
X16393166Y-8576086D01*
X16393166Y-13402086D02*
X16393166Y-13331374D01*
X16322454Y-13331374D01*
X16322454Y-13402086D01*
X16393166Y-13402086D01*
X16558056Y-7198156D02*
X16558056Y-7127444D01*
X16487344Y-7127444D01*
X16487344Y-7198156D01*
X16558056Y-7198156D01*
X16558056Y-7452156D02*
X16558056Y-7381444D01*
X16487344Y-7381444D01*
X16487344Y-7452156D01*
X16558056Y-7452156D01*
X16647166Y-8576086D02*
X16647166Y-8505374D01*
X16576454Y-8505374D01*
X16576454Y-8576086D01*
X16647166Y-8576086D01*
X16647166Y-13402086D02*
X16647166Y-13331374D01*
X16576454Y-13331374D01*
X16576454Y-13402086D01*
X16647166Y-13402086D01*
X16781606Y-12489806D02*
X16781606Y-12419094D01*
X16710894Y-12419094D01*
X16710894Y-12489806D01*
X16781606Y-12489806D01*
X16781606Y-12743806D02*
X16781606Y-12673094D01*
X16710894Y-12673094D01*
X16710894Y-12743806D01*
X16781606Y-12743806D01*
X16812056Y-7198156D02*
X16812056Y-7127444D01*
X16741344Y-7127444D01*
X16741344Y-7198156D01*
X16812056Y-7198156D01*
X16812056Y-7452156D02*
X16812056Y-7381444D01*
X16741344Y-7381444D01*
X16741344Y-7452156D01*
X16812056Y-7452156D01*
X16901166Y-8576086D02*
X16901166Y-8505374D01*
X16830454Y-8505374D01*
X16830454Y-8576086D01*
X16901166Y-8576086D01*
X16901166Y-13402086D02*
X16901166Y-13331374D01*
X16830454Y-13331374D01*
X16830454Y-13402086D01*
X16901166Y-13402086D01*
X17066056Y-7198156D02*
X17066056Y-7127444D01*
X16995344Y-7127444D01*
X16995344Y-7198156D01*
X17066056Y-7198156D01*
X17066056Y-7452156D02*
X17066056Y-7381444D01*
X16995344Y-7381444D01*
X16995344Y-7452156D01*
X17066056Y-7452156D01*
X17119606Y-10185906D02*
X17119606Y-10115194D01*
X17048894Y-10115194D01*
X17048894Y-10185906D01*
X17119606Y-10185906D01*
X17119606Y-10435906D02*
X17119606Y-10365194D01*
X17048894Y-10365194D01*
X17048894Y-10435906D01*
X17119606Y-10435906D01*
X17119606Y-11034806D02*
X17119606Y-10964094D01*
X17048894Y-10964094D01*
X17048894Y-11034806D01*
X17119606Y-11034806D01*
X17119606Y-11284806D02*
X17119606Y-11214094D01*
X17048894Y-11214094D01*
X17048894Y-11284806D01*
X17119606Y-11284806D01*
X17155166Y-8576086D02*
X17155166Y-8505374D01*
X17084454Y-8505374D01*
X17084454Y-8576086D01*
X17155166Y-8576086D01*
X17155166Y-13402086D02*
X17155166Y-13331374D01*
X17084454Y-13331374D01*
X17084454Y-13402086D01*
X17155166Y-13402086D01*
X17233906Y-12489306D02*
X17233906Y-12418594D01*
X17163194Y-12418594D01*
X17163194Y-12489306D01*
X17233906Y-12489306D01*
X17233906Y-12743306D02*
X17233906Y-12672594D01*
X17163194Y-12672594D01*
X17163194Y-12743306D01*
X17233906Y-12743306D01*
D11*
X12282677Y-13943584D02*
X12282677Y-13743584D01*
X12282677Y-13743584D02*
X12330296Y-13743584D01*
X12330296Y-13743584D02*
X12358867Y-13753108D01*
X12358867Y-13753108D02*
X12377915Y-13772155D01*
X12377915Y-13772155D02*
X12387439Y-13791203D01*
X12387439Y-13791203D02*
X12396962Y-13829298D01*
X12396962Y-13829298D02*
X12396962Y-13857869D01*
X12396962Y-13857869D02*
X12387439Y-13895965D01*
X12387439Y-13895965D02*
X12377915Y-13915012D01*
X12377915Y-13915012D02*
X12358867Y-13934060D01*
X12358867Y-13934060D02*
X12330296Y-13943584D01*
X12330296Y-13943584D02*
X12282677Y-13943584D01*
X12482677Y-13943584D02*
X12482677Y-13810250D01*
X12482677Y-13848346D02*
X12492201Y-13829298D01*
X12492201Y-13829298D02*
X12501724Y-13819774D01*
X12501724Y-13819774D02*
X12520772Y-13810250D01*
X12520772Y-13810250D02*
X12539820Y-13810250D01*
X12606486Y-13943584D02*
X12606486Y-13810250D01*
X12606486Y-13743584D02*
X12596962Y-13753108D01*
X12596962Y-13753108D02*
X12606486Y-13762631D01*
X12606486Y-13762631D02*
X12616010Y-13753108D01*
X12616010Y-13753108D02*
X12606486Y-13743584D01*
X12606486Y-13743584D02*
X12606486Y-13762631D01*
X12730296Y-13943584D02*
X12711248Y-13934060D01*
X12711248Y-13934060D02*
X12701724Y-13915012D01*
X12701724Y-13915012D02*
X12701724Y-13743584D01*
X12835058Y-13943584D02*
X12816010Y-13934060D01*
X12816010Y-13934060D02*
X12806486Y-13915012D01*
X12806486Y-13915012D02*
X12806486Y-13743584D01*
X13063629Y-13943584D02*
X13063629Y-13743584D01*
X13063629Y-13743584D02*
X13130296Y-13886441D01*
X13130296Y-13886441D02*
X13196962Y-13743584D01*
X13196962Y-13743584D02*
X13196962Y-13943584D01*
X13377915Y-13943584D02*
X13377915Y-13838822D01*
X13377915Y-13838822D02*
X13368391Y-13819774D01*
X13368391Y-13819774D02*
X13349343Y-13810250D01*
X13349343Y-13810250D02*
X13311248Y-13810250D01*
X13311248Y-13810250D02*
X13292201Y-13819774D01*
X13377915Y-13934060D02*
X13358867Y-13943584D01*
X13358867Y-13943584D02*
X13311248Y-13943584D01*
X13311248Y-13943584D02*
X13292201Y-13934060D01*
X13292201Y-13934060D02*
X13282677Y-13915012D01*
X13282677Y-13915012D02*
X13282677Y-13895965D01*
X13282677Y-13895965D02*
X13292201Y-13876917D01*
X13292201Y-13876917D02*
X13311248Y-13867393D01*
X13311248Y-13867393D02*
X13358867Y-13867393D01*
X13358867Y-13867393D02*
X13377915Y-13857869D01*
X13473153Y-13810250D02*
X13473153Y-14010250D01*
X13473153Y-13819774D02*
X13492201Y-13810250D01*
X13492201Y-13810250D02*
X13530296Y-13810250D01*
X13530296Y-13810250D02*
X13549343Y-13819774D01*
X13549343Y-13819774D02*
X13558867Y-13829298D01*
X13558867Y-13829298D02*
X13568391Y-13848346D01*
X13568391Y-13848346D02*
X13568391Y-13905488D01*
X13568391Y-13905488D02*
X13558867Y-13924536D01*
X13558867Y-13924536D02*
X13549343Y-13934060D01*
X13549343Y-13934060D02*
X13530296Y-13943584D01*
X13530296Y-13943584D02*
X13492201Y-13943584D01*
X13492201Y-13943584D02*
X13473153Y-13934060D01*
X13654105Y-13924536D02*
X13663629Y-13934060D01*
X13663629Y-13934060D02*
X13654105Y-13943584D01*
X13654105Y-13943584D02*
X13644582Y-13934060D01*
X13644582Y-13934060D02*
X13654105Y-13924536D01*
X13654105Y-13924536D02*
X13654105Y-13943584D01*
X13654105Y-13819774D02*
X13663629Y-13829298D01*
X13663629Y-13829298D02*
X13654105Y-13838822D01*
X13654105Y-13838822D02*
X13644582Y-13829298D01*
X13644582Y-13829298D02*
X13654105Y-13819774D01*
X13654105Y-13819774D02*
X13654105Y-13838822D01*
D12*
X11991900Y-14257100D02*
X12021900Y-14287100D01*
X12021900Y-14257100D02*
X11991900Y-14287100D01*
D11*
X12320772Y-14163584D02*
X12339820Y-14163584D01*
X12339820Y-14163584D02*
X12358867Y-14173108D01*
X12358867Y-14173108D02*
X12368391Y-14182631D01*
X12368391Y-14182631D02*
X12377915Y-14201679D01*
X12377915Y-14201679D02*
X12387439Y-14239774D01*
X12387439Y-14239774D02*
X12387439Y-14287393D01*
X12387439Y-14287393D02*
X12377915Y-14325488D01*
X12377915Y-14325488D02*
X12368391Y-14344536D01*
X12368391Y-14344536D02*
X12358867Y-14354060D01*
X12358867Y-14354060D02*
X12339820Y-14363584D01*
X12339820Y-14363584D02*
X12320772Y-14363584D01*
X12320772Y-14363584D02*
X12301724Y-14354060D01*
X12301724Y-14354060D02*
X12292201Y-14344536D01*
X12292201Y-14344536D02*
X12282677Y-14325488D01*
X12282677Y-14325488D02*
X12273153Y-14287393D01*
X12273153Y-14287393D02*
X12273153Y-14239774D01*
X12273153Y-14239774D02*
X12282677Y-14201679D01*
X12282677Y-14201679D02*
X12292201Y-14182631D01*
X12292201Y-14182631D02*
X12301724Y-14173108D01*
X12301724Y-14173108D02*
X12320772Y-14163584D01*
X12473153Y-14344536D02*
X12482677Y-14354060D01*
X12482677Y-14354060D02*
X12473153Y-14363584D01*
X12473153Y-14363584D02*
X12463629Y-14354060D01*
X12463629Y-14354060D02*
X12473153Y-14344536D01*
X12473153Y-14344536D02*
X12473153Y-14363584D01*
X12549343Y-14163584D02*
X12673153Y-14163584D01*
X12673153Y-14163584D02*
X12606486Y-14239774D01*
X12606486Y-14239774D02*
X12635058Y-14239774D01*
X12635058Y-14239774D02*
X12654105Y-14249298D01*
X12654105Y-14249298D02*
X12663629Y-14258822D01*
X12663629Y-14258822D02*
X12673153Y-14277869D01*
X12673153Y-14277869D02*
X12673153Y-14325488D01*
X12673153Y-14325488D02*
X12663629Y-14344536D01*
X12663629Y-14344536D02*
X12654105Y-14354060D01*
X12654105Y-14354060D02*
X12635058Y-14363584D01*
X12635058Y-14363584D02*
X12577915Y-14363584D01*
X12577915Y-14363584D02*
X12558867Y-14354060D01*
X12558867Y-14354060D02*
X12549343Y-14344536D01*
X12796962Y-14163584D02*
X12816010Y-14163584D01*
X12816010Y-14163584D02*
X12835058Y-14173108D01*
X12835058Y-14173108D02*
X12844582Y-14182631D01*
X12844582Y-14182631D02*
X12854105Y-14201679D01*
X12854105Y-14201679D02*
X12863629Y-14239774D01*
X12863629Y-14239774D02*
X12863629Y-14287393D01*
X12863629Y-14287393D02*
X12854105Y-14325488D01*
X12854105Y-14325488D02*
X12844582Y-14344536D01*
X12844582Y-14344536D02*
X12835058Y-14354060D01*
X12835058Y-14354060D02*
X12816010Y-14363584D01*
X12816010Y-14363584D02*
X12796962Y-14363584D01*
X12796962Y-14363584D02*
X12777915Y-14354060D01*
X12777915Y-14354060D02*
X12768391Y-14344536D01*
X12768391Y-14344536D02*
X12758867Y-14325488D01*
X12758867Y-14325488D02*
X12749343Y-14287393D01*
X12749343Y-14287393D02*
X12749343Y-14239774D01*
X12749343Y-14239774D02*
X12758867Y-14201679D01*
X12758867Y-14201679D02*
X12768391Y-14182631D01*
X12768391Y-14182631D02*
X12777915Y-14173108D01*
X12777915Y-14173108D02*
X12796962Y-14163584D01*
X12987439Y-14163584D02*
X13006486Y-14163584D01*
X13006486Y-14163584D02*
X13025534Y-14173108D01*
X13025534Y-14173108D02*
X13035058Y-14182631D01*
X13035058Y-14182631D02*
X13044582Y-14201679D01*
X13044582Y-14201679D02*
X13054105Y-14239774D01*
X13054105Y-14239774D02*
X13054105Y-14287393D01*
X13054105Y-14287393D02*
X13044582Y-14325488D01*
X13044582Y-14325488D02*
X13035058Y-14344536D01*
X13035058Y-14344536D02*
X13025534Y-14354060D01*
X13025534Y-14354060D02*
X13006486Y-14363584D01*
X13006486Y-14363584D02*
X12987439Y-14363584D01*
X12987439Y-14363584D02*
X12968391Y-14354060D01*
X12968391Y-14354060D02*
X12958867Y-14344536D01*
X12958867Y-14344536D02*
X12949343Y-14325488D01*
X12949343Y-14325488D02*
X12939820Y-14287393D01*
X12939820Y-14287393D02*
X12939820Y-14239774D01*
X12939820Y-14239774D02*
X12949343Y-14201679D01*
X12949343Y-14201679D02*
X12958867Y-14182631D01*
X12958867Y-14182631D02*
X12968391Y-14173108D01*
X12968391Y-14173108D02*
X12987439Y-14163584D01*
X13139820Y-14363584D02*
X13139820Y-14230250D01*
X13139820Y-14249298D02*
X13149343Y-14239774D01*
X13149343Y-14239774D02*
X13168391Y-14230250D01*
X13168391Y-14230250D02*
X13196963Y-14230250D01*
X13196963Y-14230250D02*
X13216010Y-14239774D01*
X13216010Y-14239774D02*
X13225534Y-14258822D01*
X13225534Y-14258822D02*
X13225534Y-14363584D01*
X13225534Y-14258822D02*
X13235058Y-14239774D01*
X13235058Y-14239774D02*
X13254105Y-14230250D01*
X13254105Y-14230250D02*
X13282677Y-14230250D01*
X13282677Y-14230250D02*
X13301724Y-14239774D01*
X13301724Y-14239774D02*
X13311248Y-14258822D01*
X13311248Y-14258822D02*
X13311248Y-14363584D01*
X13406486Y-14363584D02*
X13406486Y-14230250D01*
X13406486Y-14249298D02*
X13416010Y-14239774D01*
X13416010Y-14239774D02*
X13435058Y-14230250D01*
X13435058Y-14230250D02*
X13463629Y-14230250D01*
X13463629Y-14230250D02*
X13482677Y-14239774D01*
X13482677Y-14239774D02*
X13492201Y-14258822D01*
X13492201Y-14258822D02*
X13492201Y-14363584D01*
X13492201Y-14258822D02*
X13501724Y-14239774D01*
X13501724Y-14239774D02*
X13520772Y-14230250D01*
X13520772Y-14230250D02*
X13549343Y-14230250D01*
X13549343Y-14230250D02*
X13568391Y-14239774D01*
X13568391Y-14239774D02*
X13577915Y-14258822D01*
X13577915Y-14258822D02*
X13577915Y-14363584D01*
X13968391Y-14154060D02*
X13796963Y-14411203D01*
X14225534Y-14163584D02*
X14244582Y-14163584D01*
X14244582Y-14163584D02*
X14263629Y-14173108D01*
X14263629Y-14173108D02*
X14273153Y-14182631D01*
X14273153Y-14182631D02*
X14282677Y-14201679D01*
X14282677Y-14201679D02*
X14292201Y-14239774D01*
X14292201Y-14239774D02*
X14292201Y-14287393D01*
X14292201Y-14287393D02*
X14282677Y-14325488D01*
X14282677Y-14325488D02*
X14273153Y-14344536D01*
X14273153Y-14344536D02*
X14263629Y-14354060D01*
X14263629Y-14354060D02*
X14244582Y-14363584D01*
X14244582Y-14363584D02*
X14225534Y-14363584D01*
X14225534Y-14363584D02*
X14206486Y-14354060D01*
X14206486Y-14354060D02*
X14196963Y-14344536D01*
X14196963Y-14344536D02*
X14187439Y-14325488D01*
X14187439Y-14325488D02*
X14177915Y-14287393D01*
X14177915Y-14287393D02*
X14177915Y-14239774D01*
X14177915Y-14239774D02*
X14187439Y-14201679D01*
X14187439Y-14201679D02*
X14196963Y-14182631D01*
X14196963Y-14182631D02*
X14206486Y-14173108D01*
X14206486Y-14173108D02*
X14225534Y-14163584D01*
X14377915Y-14344536D02*
X14387439Y-14354060D01*
X14387439Y-14354060D02*
X14377915Y-14363584D01*
X14377915Y-14363584D02*
X14368391Y-14354060D01*
X14368391Y-14354060D02*
X14377915Y-14344536D01*
X14377915Y-14344536D02*
X14377915Y-14363584D01*
X14511248Y-14163584D02*
X14530296Y-14163584D01*
X14530296Y-14163584D02*
X14549344Y-14173108D01*
X14549344Y-14173108D02*
X14558867Y-14182631D01*
X14558867Y-14182631D02*
X14568391Y-14201679D01*
X14568391Y-14201679D02*
X14577915Y-14239774D01*
X14577915Y-14239774D02*
X14577915Y-14287393D01*
X14577915Y-14287393D02*
X14568391Y-14325488D01*
X14568391Y-14325488D02*
X14558867Y-14344536D01*
X14558867Y-14344536D02*
X14549344Y-14354060D01*
X14549344Y-14354060D02*
X14530296Y-14363584D01*
X14530296Y-14363584D02*
X14511248Y-14363584D01*
X14511248Y-14363584D02*
X14492201Y-14354060D01*
X14492201Y-14354060D02*
X14482677Y-14344536D01*
X14482677Y-14344536D02*
X14473153Y-14325488D01*
X14473153Y-14325488D02*
X14463629Y-14287393D01*
X14463629Y-14287393D02*
X14463629Y-14239774D01*
X14463629Y-14239774D02*
X14473153Y-14201679D01*
X14473153Y-14201679D02*
X14482677Y-14182631D01*
X14482677Y-14182631D02*
X14492201Y-14173108D01*
X14492201Y-14173108D02*
X14511248Y-14163584D01*
X14768391Y-14363584D02*
X14654106Y-14363584D01*
X14711248Y-14363584D02*
X14711248Y-14163584D01*
X14711248Y-14163584D02*
X14692201Y-14192155D01*
X14692201Y-14192155D02*
X14673153Y-14211203D01*
X14673153Y-14211203D02*
X14654106Y-14220727D01*
X14958867Y-14363584D02*
X14844582Y-14363584D01*
X14901725Y-14363584D02*
X14901725Y-14163584D01*
X14901725Y-14163584D02*
X14882677Y-14192155D01*
X14882677Y-14192155D02*
X14863629Y-14211203D01*
X14863629Y-14211203D02*
X14844582Y-14220727D01*
X15073153Y-14249298D02*
X15054106Y-14239774D01*
X15054106Y-14239774D02*
X15044582Y-14230250D01*
X15044582Y-14230250D02*
X15035058Y-14211203D01*
X15035058Y-14211203D02*
X15035058Y-14201679D01*
X15035058Y-14201679D02*
X15044582Y-14182631D01*
X15044582Y-14182631D02*
X15054106Y-14173108D01*
X15054106Y-14173108D02*
X15073153Y-14163584D01*
X15073153Y-14163584D02*
X15111248Y-14163584D01*
X15111248Y-14163584D02*
X15130296Y-14173108D01*
X15130296Y-14173108D02*
X15139820Y-14182631D01*
X15139820Y-14182631D02*
X15149344Y-14201679D01*
X15149344Y-14201679D02*
X15149344Y-14211203D01*
X15149344Y-14211203D02*
X15139820Y-14230250D01*
X15139820Y-14230250D02*
X15130296Y-14239774D01*
X15130296Y-14239774D02*
X15111248Y-14249298D01*
X15111248Y-14249298D02*
X15073153Y-14249298D01*
X15073153Y-14249298D02*
X15054106Y-14258822D01*
X15054106Y-14258822D02*
X15044582Y-14268346D01*
X15044582Y-14268346D02*
X15035058Y-14287393D01*
X15035058Y-14287393D02*
X15035058Y-14325488D01*
X15035058Y-14325488D02*
X15044582Y-14344536D01*
X15044582Y-14344536D02*
X15054106Y-14354060D01*
X15054106Y-14354060D02*
X15073153Y-14363584D01*
X15073153Y-14363584D02*
X15111248Y-14363584D01*
X15111248Y-14363584D02*
X15130296Y-14354060D01*
X15130296Y-14354060D02*
X15139820Y-14344536D01*
X15139820Y-14344536D02*
X15149344Y-14325488D01*
X15149344Y-14325488D02*
X15149344Y-14287393D01*
X15149344Y-14287393D02*
X15139820Y-14268346D01*
X15139820Y-14268346D02*
X15130296Y-14258822D01*
X15130296Y-14258822D02*
X15111248Y-14249298D01*
X15225534Y-14163584D02*
X15225534Y-14201679D01*
X15301725Y-14163584D02*
X15301725Y-14201679D01*
X15596963Y-14439774D02*
X15587439Y-14430250D01*
X15587439Y-14430250D02*
X15568391Y-14401679D01*
X15568391Y-14401679D02*
X15558868Y-14382631D01*
X15558868Y-14382631D02*
X15549344Y-14354060D01*
X15549344Y-14354060D02*
X15539820Y-14306441D01*
X15539820Y-14306441D02*
X15539820Y-14268346D01*
X15539820Y-14268346D02*
X15549344Y-14220727D01*
X15549344Y-14220727D02*
X15558868Y-14192155D01*
X15558868Y-14192155D02*
X15568391Y-14173108D01*
X15568391Y-14173108D02*
X15587439Y-14144536D01*
X15587439Y-14144536D02*
X15596963Y-14135012D01*
X15768391Y-14163584D02*
X15673153Y-14163584D01*
X15673153Y-14163584D02*
X15663629Y-14258822D01*
X15663629Y-14258822D02*
X15673153Y-14249298D01*
X15673153Y-14249298D02*
X15692201Y-14239774D01*
X15692201Y-14239774D02*
X15739820Y-14239774D01*
X15739820Y-14239774D02*
X15758868Y-14249298D01*
X15758868Y-14249298D02*
X15768391Y-14258822D01*
X15768391Y-14258822D02*
X15777915Y-14277869D01*
X15777915Y-14277869D02*
X15777915Y-14325488D01*
X15777915Y-14325488D02*
X15768391Y-14344536D01*
X15768391Y-14344536D02*
X15758868Y-14354060D01*
X15758868Y-14354060D02*
X15739820Y-14363584D01*
X15739820Y-14363584D02*
X15692201Y-14363584D01*
X15692201Y-14363584D02*
X15673153Y-14354060D01*
X15673153Y-14354060D02*
X15663629Y-14344536D01*
X16016010Y-14363584D02*
X16016010Y-14163584D01*
X16101725Y-14363584D02*
X16101725Y-14258822D01*
X16101725Y-14258822D02*
X16092201Y-14239774D01*
X16092201Y-14239774D02*
X16073153Y-14230250D01*
X16073153Y-14230250D02*
X16044582Y-14230250D01*
X16044582Y-14230250D02*
X16025534Y-14239774D01*
X16025534Y-14239774D02*
X16016010Y-14249298D01*
X16225534Y-14363584D02*
X16206487Y-14354060D01*
X16206487Y-14354060D02*
X16196963Y-14344536D01*
X16196963Y-14344536D02*
X16187439Y-14325488D01*
X16187439Y-14325488D02*
X16187439Y-14268346D01*
X16187439Y-14268346D02*
X16196963Y-14249298D01*
X16196963Y-14249298D02*
X16206487Y-14239774D01*
X16206487Y-14239774D02*
X16225534Y-14230250D01*
X16225534Y-14230250D02*
X16254106Y-14230250D01*
X16254106Y-14230250D02*
X16273153Y-14239774D01*
X16273153Y-14239774D02*
X16282677Y-14249298D01*
X16282677Y-14249298D02*
X16292201Y-14268346D01*
X16292201Y-14268346D02*
X16292201Y-14325488D01*
X16292201Y-14325488D02*
X16282677Y-14344536D01*
X16282677Y-14344536D02*
X16273153Y-14354060D01*
X16273153Y-14354060D02*
X16254106Y-14363584D01*
X16254106Y-14363584D02*
X16225534Y-14363584D01*
X16406487Y-14363584D02*
X16387439Y-14354060D01*
X16387439Y-14354060D02*
X16377915Y-14335012D01*
X16377915Y-14335012D02*
X16377915Y-14163584D01*
X16558868Y-14354060D02*
X16539820Y-14363584D01*
X16539820Y-14363584D02*
X16501725Y-14363584D01*
X16501725Y-14363584D02*
X16482677Y-14354060D01*
X16482677Y-14354060D02*
X16473153Y-14335012D01*
X16473153Y-14335012D02*
X16473153Y-14258822D01*
X16473153Y-14258822D02*
X16482677Y-14239774D01*
X16482677Y-14239774D02*
X16501725Y-14230250D01*
X16501725Y-14230250D02*
X16539820Y-14230250D01*
X16539820Y-14230250D02*
X16558868Y-14239774D01*
X16558868Y-14239774D02*
X16568391Y-14258822D01*
X16568391Y-14258822D02*
X16568391Y-14277869D01*
X16568391Y-14277869D02*
X16473153Y-14296917D01*
X16644582Y-14354060D02*
X16663630Y-14363584D01*
X16663630Y-14363584D02*
X16701725Y-14363584D01*
X16701725Y-14363584D02*
X16720772Y-14354060D01*
X16720772Y-14354060D02*
X16730296Y-14335012D01*
X16730296Y-14335012D02*
X16730296Y-14325488D01*
X16730296Y-14325488D02*
X16720772Y-14306441D01*
X16720772Y-14306441D02*
X16701725Y-14296917D01*
X16701725Y-14296917D02*
X16673153Y-14296917D01*
X16673153Y-14296917D02*
X16654106Y-14287393D01*
X16654106Y-14287393D02*
X16644582Y-14268346D01*
X16644582Y-14268346D02*
X16644582Y-14258822D01*
X16644582Y-14258822D02*
X16654106Y-14239774D01*
X16654106Y-14239774D02*
X16673153Y-14230250D01*
X16673153Y-14230250D02*
X16701725Y-14230250D01*
X16701725Y-14230250D02*
X16720772Y-14239774D01*
X16796963Y-14439774D02*
X16806487Y-14430250D01*
X16806487Y-14430250D02*
X16825534Y-14401679D01*
X16825534Y-14401679D02*
X16835058Y-14382631D01*
X16835058Y-14382631D02*
X16844582Y-14354060D01*
X16844582Y-14354060D02*
X16854106Y-14306441D01*
X16854106Y-14306441D02*
X16854106Y-14268346D01*
X16854106Y-14268346D02*
X16844582Y-14220727D01*
X16844582Y-14220727D02*
X16835058Y-14192155D01*
X16835058Y-14192155D02*
X16825534Y-14173108D01*
X16825534Y-14173108D02*
X16806487Y-14144536D01*
X16806487Y-14144536D02*
X16796963Y-14135012D01*
D13*
X12021900Y-14536100D02*
G75*
G03*
X12021900Y-14536100I-20000J0D01*
G01*
D11*
X12320772Y-14427584D02*
X12339820Y-14427584D01*
X12339820Y-14427584D02*
X12358867Y-14437108D01*
X12358867Y-14437108D02*
X12368391Y-14446631D01*
X12368391Y-14446631D02*
X12377915Y-14465679D01*
X12377915Y-14465679D02*
X12387439Y-14503774D01*
X12387439Y-14503774D02*
X12387439Y-14551393D01*
X12387439Y-14551393D02*
X12377915Y-14589488D01*
X12377915Y-14589488D02*
X12368391Y-14608536D01*
X12368391Y-14608536D02*
X12358867Y-14618060D01*
X12358867Y-14618060D02*
X12339820Y-14627584D01*
X12339820Y-14627584D02*
X12320772Y-14627584D01*
X12320772Y-14627584D02*
X12301724Y-14618060D01*
X12301724Y-14618060D02*
X12292201Y-14608536D01*
X12292201Y-14608536D02*
X12282677Y-14589488D01*
X12282677Y-14589488D02*
X12273153Y-14551393D01*
X12273153Y-14551393D02*
X12273153Y-14503774D01*
X12273153Y-14503774D02*
X12282677Y-14465679D01*
X12282677Y-14465679D02*
X12292201Y-14446631D01*
X12292201Y-14446631D02*
X12301724Y-14437108D01*
X12301724Y-14437108D02*
X12320772Y-14427584D01*
X12473153Y-14608536D02*
X12482677Y-14618060D01*
X12482677Y-14618060D02*
X12473153Y-14627584D01*
X12473153Y-14627584D02*
X12463629Y-14618060D01*
X12463629Y-14618060D02*
X12473153Y-14608536D01*
X12473153Y-14608536D02*
X12473153Y-14627584D01*
X12654105Y-14494250D02*
X12654105Y-14627584D01*
X12606486Y-14418060D02*
X12558867Y-14560917D01*
X12558867Y-14560917D02*
X12682677Y-14560917D01*
X12796962Y-14427584D02*
X12816010Y-14427584D01*
X12816010Y-14427584D02*
X12835058Y-14437108D01*
X12835058Y-14437108D02*
X12844582Y-14446631D01*
X12844582Y-14446631D02*
X12854105Y-14465679D01*
X12854105Y-14465679D02*
X12863629Y-14503774D01*
X12863629Y-14503774D02*
X12863629Y-14551393D01*
X12863629Y-14551393D02*
X12854105Y-14589488D01*
X12854105Y-14589488D02*
X12844582Y-14608536D01*
X12844582Y-14608536D02*
X12835058Y-14618060D01*
X12835058Y-14618060D02*
X12816010Y-14627584D01*
X12816010Y-14627584D02*
X12796962Y-14627584D01*
X12796962Y-14627584D02*
X12777915Y-14618060D01*
X12777915Y-14618060D02*
X12768391Y-14608536D01*
X12768391Y-14608536D02*
X12758867Y-14589488D01*
X12758867Y-14589488D02*
X12749343Y-14551393D01*
X12749343Y-14551393D02*
X12749343Y-14503774D01*
X12749343Y-14503774D02*
X12758867Y-14465679D01*
X12758867Y-14465679D02*
X12768391Y-14446631D01*
X12768391Y-14446631D02*
X12777915Y-14437108D01*
X12777915Y-14437108D02*
X12796962Y-14427584D01*
X12987439Y-14427584D02*
X13006486Y-14427584D01*
X13006486Y-14427584D02*
X13025534Y-14437108D01*
X13025534Y-14437108D02*
X13035058Y-14446631D01*
X13035058Y-14446631D02*
X13044582Y-14465679D01*
X13044582Y-14465679D02*
X13054105Y-14503774D01*
X13054105Y-14503774D02*
X13054105Y-14551393D01*
X13054105Y-14551393D02*
X13044582Y-14589488D01*
X13044582Y-14589488D02*
X13035058Y-14608536D01*
X13035058Y-14608536D02*
X13025534Y-14618060D01*
X13025534Y-14618060D02*
X13006486Y-14627584D01*
X13006486Y-14627584D02*
X12987439Y-14627584D01*
X12987439Y-14627584D02*
X12968391Y-14618060D01*
X12968391Y-14618060D02*
X12958867Y-14608536D01*
X12958867Y-14608536D02*
X12949343Y-14589488D01*
X12949343Y-14589488D02*
X12939820Y-14551393D01*
X12939820Y-14551393D02*
X12939820Y-14503774D01*
X12939820Y-14503774D02*
X12949343Y-14465679D01*
X12949343Y-14465679D02*
X12958867Y-14446631D01*
X12958867Y-14446631D02*
X12968391Y-14437108D01*
X12968391Y-14437108D02*
X12987439Y-14427584D01*
X13139820Y-14627584D02*
X13139820Y-14494250D01*
X13139820Y-14513298D02*
X13149343Y-14503774D01*
X13149343Y-14503774D02*
X13168391Y-14494250D01*
X13168391Y-14494250D02*
X13196963Y-14494250D01*
X13196963Y-14494250D02*
X13216010Y-14503774D01*
X13216010Y-14503774D02*
X13225534Y-14522822D01*
X13225534Y-14522822D02*
X13225534Y-14627584D01*
X13225534Y-14522822D02*
X13235058Y-14503774D01*
X13235058Y-14503774D02*
X13254105Y-14494250D01*
X13254105Y-14494250D02*
X13282677Y-14494250D01*
X13282677Y-14494250D02*
X13301724Y-14503774D01*
X13301724Y-14503774D02*
X13311248Y-14522822D01*
X13311248Y-14522822D02*
X13311248Y-14627584D01*
X13406486Y-14627584D02*
X13406486Y-14494250D01*
X13406486Y-14513298D02*
X13416010Y-14503774D01*
X13416010Y-14503774D02*
X13435058Y-14494250D01*
X13435058Y-14494250D02*
X13463629Y-14494250D01*
X13463629Y-14494250D02*
X13482677Y-14503774D01*
X13482677Y-14503774D02*
X13492201Y-14522822D01*
X13492201Y-14522822D02*
X13492201Y-14627584D01*
X13492201Y-14522822D02*
X13501724Y-14503774D01*
X13501724Y-14503774D02*
X13520772Y-14494250D01*
X13520772Y-14494250D02*
X13549343Y-14494250D01*
X13549343Y-14494250D02*
X13568391Y-14503774D01*
X13568391Y-14503774D02*
X13577915Y-14522822D01*
X13577915Y-14522822D02*
X13577915Y-14627584D01*
X13968391Y-14418060D02*
X13796963Y-14675203D01*
X14225534Y-14427584D02*
X14244582Y-14427584D01*
X14244582Y-14427584D02*
X14263629Y-14437108D01*
X14263629Y-14437108D02*
X14273153Y-14446631D01*
X14273153Y-14446631D02*
X14282677Y-14465679D01*
X14282677Y-14465679D02*
X14292201Y-14503774D01*
X14292201Y-14503774D02*
X14292201Y-14551393D01*
X14292201Y-14551393D02*
X14282677Y-14589488D01*
X14282677Y-14589488D02*
X14273153Y-14608536D01*
X14273153Y-14608536D02*
X14263629Y-14618060D01*
X14263629Y-14618060D02*
X14244582Y-14627584D01*
X14244582Y-14627584D02*
X14225534Y-14627584D01*
X14225534Y-14627584D02*
X14206486Y-14618060D01*
X14206486Y-14618060D02*
X14196963Y-14608536D01*
X14196963Y-14608536D02*
X14187439Y-14589488D01*
X14187439Y-14589488D02*
X14177915Y-14551393D01*
X14177915Y-14551393D02*
X14177915Y-14503774D01*
X14177915Y-14503774D02*
X14187439Y-14465679D01*
X14187439Y-14465679D02*
X14196963Y-14446631D01*
X14196963Y-14446631D02*
X14206486Y-14437108D01*
X14206486Y-14437108D02*
X14225534Y-14427584D01*
X14377915Y-14608536D02*
X14387439Y-14618060D01*
X14387439Y-14618060D02*
X14377915Y-14627584D01*
X14377915Y-14627584D02*
X14368391Y-14618060D01*
X14368391Y-14618060D02*
X14377915Y-14608536D01*
X14377915Y-14608536D02*
X14377915Y-14627584D01*
X14511248Y-14427584D02*
X14530296Y-14427584D01*
X14530296Y-14427584D02*
X14549344Y-14437108D01*
X14549344Y-14437108D02*
X14558867Y-14446631D01*
X14558867Y-14446631D02*
X14568391Y-14465679D01*
X14568391Y-14465679D02*
X14577915Y-14503774D01*
X14577915Y-14503774D02*
X14577915Y-14551393D01*
X14577915Y-14551393D02*
X14568391Y-14589488D01*
X14568391Y-14589488D02*
X14558867Y-14608536D01*
X14558867Y-14608536D02*
X14549344Y-14618060D01*
X14549344Y-14618060D02*
X14530296Y-14627584D01*
X14530296Y-14627584D02*
X14511248Y-14627584D01*
X14511248Y-14627584D02*
X14492201Y-14618060D01*
X14492201Y-14618060D02*
X14482677Y-14608536D01*
X14482677Y-14608536D02*
X14473153Y-14589488D01*
X14473153Y-14589488D02*
X14463629Y-14551393D01*
X14463629Y-14551393D02*
X14463629Y-14503774D01*
X14463629Y-14503774D02*
X14473153Y-14465679D01*
X14473153Y-14465679D02*
X14482677Y-14446631D01*
X14482677Y-14446631D02*
X14492201Y-14437108D01*
X14492201Y-14437108D02*
X14511248Y-14427584D01*
X14768391Y-14627584D02*
X14654106Y-14627584D01*
X14711248Y-14627584D02*
X14711248Y-14427584D01*
X14711248Y-14427584D02*
X14692201Y-14456155D01*
X14692201Y-14456155D02*
X14673153Y-14475203D01*
X14673153Y-14475203D02*
X14654106Y-14484727D01*
X14949344Y-14427584D02*
X14854106Y-14427584D01*
X14854106Y-14427584D02*
X14844582Y-14522822D01*
X14844582Y-14522822D02*
X14854106Y-14513298D01*
X14854106Y-14513298D02*
X14873153Y-14503774D01*
X14873153Y-14503774D02*
X14920772Y-14503774D01*
X14920772Y-14503774D02*
X14939820Y-14513298D01*
X14939820Y-14513298D02*
X14949344Y-14522822D01*
X14949344Y-14522822D02*
X14958867Y-14541869D01*
X14958867Y-14541869D02*
X14958867Y-14589488D01*
X14958867Y-14589488D02*
X14949344Y-14608536D01*
X14949344Y-14608536D02*
X14939820Y-14618060D01*
X14939820Y-14618060D02*
X14920772Y-14627584D01*
X14920772Y-14627584D02*
X14873153Y-14627584D01*
X14873153Y-14627584D02*
X14854106Y-14618060D01*
X14854106Y-14618060D02*
X14844582Y-14608536D01*
X15025534Y-14427584D02*
X15158867Y-14427584D01*
X15158867Y-14427584D02*
X15073153Y-14627584D01*
X15225534Y-14427584D02*
X15225534Y-14465679D01*
X15301725Y-14427584D02*
X15301725Y-14465679D01*
X15596963Y-14703774D02*
X15587439Y-14694250D01*
X15587439Y-14694250D02*
X15568391Y-14665679D01*
X15568391Y-14665679D02*
X15558868Y-14646631D01*
X15558868Y-14646631D02*
X15549344Y-14618060D01*
X15549344Y-14618060D02*
X15539820Y-14570441D01*
X15539820Y-14570441D02*
X15539820Y-14532346D01*
X15539820Y-14532346D02*
X15549344Y-14484727D01*
X15549344Y-14484727D02*
X15558868Y-14456155D01*
X15558868Y-14456155D02*
X15568391Y-14437108D01*
X15568391Y-14437108D02*
X15587439Y-14408536D01*
X15587439Y-14408536D02*
X15596963Y-14399012D01*
X15654106Y-14427584D02*
X15777915Y-14427584D01*
X15777915Y-14427584D02*
X15711248Y-14503774D01*
X15711248Y-14503774D02*
X15739820Y-14503774D01*
X15739820Y-14503774D02*
X15758868Y-14513298D01*
X15758868Y-14513298D02*
X15768391Y-14522822D01*
X15768391Y-14522822D02*
X15777915Y-14541869D01*
X15777915Y-14541869D02*
X15777915Y-14589488D01*
X15777915Y-14589488D02*
X15768391Y-14608536D01*
X15768391Y-14608536D02*
X15758868Y-14618060D01*
X15758868Y-14618060D02*
X15739820Y-14627584D01*
X15739820Y-14627584D02*
X15682677Y-14627584D01*
X15682677Y-14627584D02*
X15663629Y-14618060D01*
X15663629Y-14618060D02*
X15654106Y-14608536D01*
X15968391Y-14627584D02*
X15854106Y-14627584D01*
X15911248Y-14627584D02*
X15911248Y-14427584D01*
X15911248Y-14427584D02*
X15892201Y-14456155D01*
X15892201Y-14456155D02*
X15873153Y-14475203D01*
X15873153Y-14475203D02*
X15854106Y-14484727D01*
X16206487Y-14627584D02*
X16206487Y-14427584D01*
X16292201Y-14627584D02*
X16292201Y-14522822D01*
X16292201Y-14522822D02*
X16282677Y-14503774D01*
X16282677Y-14503774D02*
X16263630Y-14494250D01*
X16263630Y-14494250D02*
X16235058Y-14494250D01*
X16235058Y-14494250D02*
X16216010Y-14503774D01*
X16216010Y-14503774D02*
X16206487Y-14513298D01*
X16416010Y-14627584D02*
X16396963Y-14618060D01*
X16396963Y-14618060D02*
X16387439Y-14608536D01*
X16387439Y-14608536D02*
X16377915Y-14589488D01*
X16377915Y-14589488D02*
X16377915Y-14532346D01*
X16377915Y-14532346D02*
X16387439Y-14513298D01*
X16387439Y-14513298D02*
X16396963Y-14503774D01*
X16396963Y-14503774D02*
X16416010Y-14494250D01*
X16416010Y-14494250D02*
X16444582Y-14494250D01*
X16444582Y-14494250D02*
X16463630Y-14503774D01*
X16463630Y-14503774D02*
X16473153Y-14513298D01*
X16473153Y-14513298D02*
X16482677Y-14532346D01*
X16482677Y-14532346D02*
X16482677Y-14589488D01*
X16482677Y-14589488D02*
X16473153Y-14608536D01*
X16473153Y-14608536D02*
X16463630Y-14618060D01*
X16463630Y-14618060D02*
X16444582Y-14627584D01*
X16444582Y-14627584D02*
X16416010Y-14627584D01*
X16596963Y-14627584D02*
X16577915Y-14618060D01*
X16577915Y-14618060D02*
X16568391Y-14599012D01*
X16568391Y-14599012D02*
X16568391Y-14427584D01*
X16749344Y-14618060D02*
X16730296Y-14627584D01*
X16730296Y-14627584D02*
X16692201Y-14627584D01*
X16692201Y-14627584D02*
X16673153Y-14618060D01*
X16673153Y-14618060D02*
X16663630Y-14599012D01*
X16663630Y-14599012D02*
X16663630Y-14522822D01*
X16663630Y-14522822D02*
X16673153Y-14503774D01*
X16673153Y-14503774D02*
X16692201Y-14494250D01*
X16692201Y-14494250D02*
X16730296Y-14494250D01*
X16730296Y-14494250D02*
X16749344Y-14503774D01*
X16749344Y-14503774D02*
X16758868Y-14522822D01*
X16758868Y-14522822D02*
X16758868Y-14541869D01*
X16758868Y-14541869D02*
X16663630Y-14560917D01*
X16835058Y-14618060D02*
X16854106Y-14627584D01*
X16854106Y-14627584D02*
X16892201Y-14627584D01*
X16892201Y-14627584D02*
X16911249Y-14618060D01*
X16911249Y-14618060D02*
X16920773Y-14599012D01*
X16920773Y-14599012D02*
X16920773Y-14589488D01*
X16920773Y-14589488D02*
X16911249Y-14570441D01*
X16911249Y-14570441D02*
X16892201Y-14560917D01*
X16892201Y-14560917D02*
X16863630Y-14560917D01*
X16863630Y-14560917D02*
X16844582Y-14551393D01*
X16844582Y-14551393D02*
X16835058Y-14532346D01*
X16835058Y-14532346D02*
X16835058Y-14522822D01*
X16835058Y-14522822D02*
X16844582Y-14503774D01*
X16844582Y-14503774D02*
X16863630Y-14494250D01*
X16863630Y-14494250D02*
X16892201Y-14494250D01*
X16892201Y-14494250D02*
X16911249Y-14503774D01*
X16987439Y-14703774D02*
X16996963Y-14694250D01*
X16996963Y-14694250D02*
X17016011Y-14665679D01*
X17016011Y-14665679D02*
X17025534Y-14646631D01*
X17025534Y-14646631D02*
X17035058Y-14618060D01*
X17035058Y-14618060D02*
X17044582Y-14570441D01*
X17044582Y-14570441D02*
X17044582Y-14532346D01*
X17044582Y-14532346D02*
X17035058Y-14484727D01*
X17035058Y-14484727D02*
X17025534Y-14456155D01*
X17025534Y-14456155D02*
X17016011Y-14437108D01*
X17016011Y-14437108D02*
X16996963Y-14408536D01*
X16996963Y-14408536D02*
X16987439Y-14399012D01*
D14*
X11974400Y-14752600D02*
X11974400Y-14847600D01*
X11926900Y-14800100D02*
X12021900Y-14800100D01*
D11*
X12320772Y-14691584D02*
X12339820Y-14691584D01*
X12339820Y-14691584D02*
X12358867Y-14701108D01*
X12358867Y-14701108D02*
X12368391Y-14710631D01*
X12368391Y-14710631D02*
X12377915Y-14729679D01*
X12377915Y-14729679D02*
X12387439Y-14767774D01*
X12387439Y-14767774D02*
X12387439Y-14815393D01*
X12387439Y-14815393D02*
X12377915Y-14853488D01*
X12377915Y-14853488D02*
X12368391Y-14872536D01*
X12368391Y-14872536D02*
X12358867Y-14882060D01*
X12358867Y-14882060D02*
X12339820Y-14891584D01*
X12339820Y-14891584D02*
X12320772Y-14891584D01*
X12320772Y-14891584D02*
X12301724Y-14882060D01*
X12301724Y-14882060D02*
X12292201Y-14872536D01*
X12292201Y-14872536D02*
X12282677Y-14853488D01*
X12282677Y-14853488D02*
X12273153Y-14815393D01*
X12273153Y-14815393D02*
X12273153Y-14767774D01*
X12273153Y-14767774D02*
X12282677Y-14729679D01*
X12282677Y-14729679D02*
X12292201Y-14710631D01*
X12292201Y-14710631D02*
X12301724Y-14701108D01*
X12301724Y-14701108D02*
X12320772Y-14691584D01*
X12473153Y-14872536D02*
X12482677Y-14882060D01*
X12482677Y-14882060D02*
X12473153Y-14891584D01*
X12473153Y-14891584D02*
X12463629Y-14882060D01*
X12463629Y-14882060D02*
X12473153Y-14872536D01*
X12473153Y-14872536D02*
X12473153Y-14891584D01*
X12577915Y-14891584D02*
X12616010Y-14891584D01*
X12616010Y-14891584D02*
X12635058Y-14882060D01*
X12635058Y-14882060D02*
X12644582Y-14872536D01*
X12644582Y-14872536D02*
X12663629Y-14843965D01*
X12663629Y-14843965D02*
X12673153Y-14805869D01*
X12673153Y-14805869D02*
X12673153Y-14729679D01*
X12673153Y-14729679D02*
X12663629Y-14710631D01*
X12663629Y-14710631D02*
X12654105Y-14701108D01*
X12654105Y-14701108D02*
X12635058Y-14691584D01*
X12635058Y-14691584D02*
X12596962Y-14691584D01*
X12596962Y-14691584D02*
X12577915Y-14701108D01*
X12577915Y-14701108D02*
X12568391Y-14710631D01*
X12568391Y-14710631D02*
X12558867Y-14729679D01*
X12558867Y-14729679D02*
X12558867Y-14777298D01*
X12558867Y-14777298D02*
X12568391Y-14796346D01*
X12568391Y-14796346D02*
X12577915Y-14805869D01*
X12577915Y-14805869D02*
X12596962Y-14815393D01*
X12596962Y-14815393D02*
X12635058Y-14815393D01*
X12635058Y-14815393D02*
X12654105Y-14805869D01*
X12654105Y-14805869D02*
X12663629Y-14796346D01*
X12663629Y-14796346D02*
X12673153Y-14777298D01*
X12854105Y-14691584D02*
X12758867Y-14691584D01*
X12758867Y-14691584D02*
X12749343Y-14786822D01*
X12749343Y-14786822D02*
X12758867Y-14777298D01*
X12758867Y-14777298D02*
X12777915Y-14767774D01*
X12777915Y-14767774D02*
X12825534Y-14767774D01*
X12825534Y-14767774D02*
X12844582Y-14777298D01*
X12844582Y-14777298D02*
X12854105Y-14786822D01*
X12854105Y-14786822D02*
X12863629Y-14805869D01*
X12863629Y-14805869D02*
X12863629Y-14853488D01*
X12863629Y-14853488D02*
X12854105Y-14872536D01*
X12854105Y-14872536D02*
X12844582Y-14882060D01*
X12844582Y-14882060D02*
X12825534Y-14891584D01*
X12825534Y-14891584D02*
X12777915Y-14891584D01*
X12777915Y-14891584D02*
X12758867Y-14882060D01*
X12758867Y-14882060D02*
X12749343Y-14872536D01*
X12987439Y-14691584D02*
X13006486Y-14691584D01*
X13006486Y-14691584D02*
X13025534Y-14701108D01*
X13025534Y-14701108D02*
X13035058Y-14710631D01*
X13035058Y-14710631D02*
X13044582Y-14729679D01*
X13044582Y-14729679D02*
X13054105Y-14767774D01*
X13054105Y-14767774D02*
X13054105Y-14815393D01*
X13054105Y-14815393D02*
X13044582Y-14853488D01*
X13044582Y-14853488D02*
X13035058Y-14872536D01*
X13035058Y-14872536D02*
X13025534Y-14882060D01*
X13025534Y-14882060D02*
X13006486Y-14891584D01*
X13006486Y-14891584D02*
X12987439Y-14891584D01*
X12987439Y-14891584D02*
X12968391Y-14882060D01*
X12968391Y-14882060D02*
X12958867Y-14872536D01*
X12958867Y-14872536D02*
X12949343Y-14853488D01*
X12949343Y-14853488D02*
X12939820Y-14815393D01*
X12939820Y-14815393D02*
X12939820Y-14767774D01*
X12939820Y-14767774D02*
X12949343Y-14729679D01*
X12949343Y-14729679D02*
X12958867Y-14710631D01*
X12958867Y-14710631D02*
X12968391Y-14701108D01*
X12968391Y-14701108D02*
X12987439Y-14691584D01*
X13139820Y-14891584D02*
X13139820Y-14758250D01*
X13139820Y-14777298D02*
X13149343Y-14767774D01*
X13149343Y-14767774D02*
X13168391Y-14758250D01*
X13168391Y-14758250D02*
X13196963Y-14758250D01*
X13196963Y-14758250D02*
X13216010Y-14767774D01*
X13216010Y-14767774D02*
X13225534Y-14786822D01*
X13225534Y-14786822D02*
X13225534Y-14891584D01*
X13225534Y-14786822D02*
X13235058Y-14767774D01*
X13235058Y-14767774D02*
X13254105Y-14758250D01*
X13254105Y-14758250D02*
X13282677Y-14758250D01*
X13282677Y-14758250D02*
X13301724Y-14767774D01*
X13301724Y-14767774D02*
X13311248Y-14786822D01*
X13311248Y-14786822D02*
X13311248Y-14891584D01*
X13406486Y-14891584D02*
X13406486Y-14758250D01*
X13406486Y-14777298D02*
X13416010Y-14767774D01*
X13416010Y-14767774D02*
X13435058Y-14758250D01*
X13435058Y-14758250D02*
X13463629Y-14758250D01*
X13463629Y-14758250D02*
X13482677Y-14767774D01*
X13482677Y-14767774D02*
X13492201Y-14786822D01*
X13492201Y-14786822D02*
X13492201Y-14891584D01*
X13492201Y-14786822D02*
X13501724Y-14767774D01*
X13501724Y-14767774D02*
X13520772Y-14758250D01*
X13520772Y-14758250D02*
X13549343Y-14758250D01*
X13549343Y-14758250D02*
X13568391Y-14767774D01*
X13568391Y-14767774D02*
X13577915Y-14786822D01*
X13577915Y-14786822D02*
X13577915Y-14891584D01*
X13968391Y-14682060D02*
X13796963Y-14939203D01*
X14225534Y-14691584D02*
X14244582Y-14691584D01*
X14244582Y-14691584D02*
X14263629Y-14701108D01*
X14263629Y-14701108D02*
X14273153Y-14710631D01*
X14273153Y-14710631D02*
X14282677Y-14729679D01*
X14282677Y-14729679D02*
X14292201Y-14767774D01*
X14292201Y-14767774D02*
X14292201Y-14815393D01*
X14292201Y-14815393D02*
X14282677Y-14853488D01*
X14282677Y-14853488D02*
X14273153Y-14872536D01*
X14273153Y-14872536D02*
X14263629Y-14882060D01*
X14263629Y-14882060D02*
X14244582Y-14891584D01*
X14244582Y-14891584D02*
X14225534Y-14891584D01*
X14225534Y-14891584D02*
X14206486Y-14882060D01*
X14206486Y-14882060D02*
X14196963Y-14872536D01*
X14196963Y-14872536D02*
X14187439Y-14853488D01*
X14187439Y-14853488D02*
X14177915Y-14815393D01*
X14177915Y-14815393D02*
X14177915Y-14767774D01*
X14177915Y-14767774D02*
X14187439Y-14729679D01*
X14187439Y-14729679D02*
X14196963Y-14710631D01*
X14196963Y-14710631D02*
X14206486Y-14701108D01*
X14206486Y-14701108D02*
X14225534Y-14691584D01*
X14377915Y-14872536D02*
X14387439Y-14882060D01*
X14387439Y-14882060D02*
X14377915Y-14891584D01*
X14377915Y-14891584D02*
X14368391Y-14882060D01*
X14368391Y-14882060D02*
X14377915Y-14872536D01*
X14377915Y-14872536D02*
X14377915Y-14891584D01*
X14511248Y-14691584D02*
X14530296Y-14691584D01*
X14530296Y-14691584D02*
X14549344Y-14701108D01*
X14549344Y-14701108D02*
X14558867Y-14710631D01*
X14558867Y-14710631D02*
X14568391Y-14729679D01*
X14568391Y-14729679D02*
X14577915Y-14767774D01*
X14577915Y-14767774D02*
X14577915Y-14815393D01*
X14577915Y-14815393D02*
X14568391Y-14853488D01*
X14568391Y-14853488D02*
X14558867Y-14872536D01*
X14558867Y-14872536D02*
X14549344Y-14882060D01*
X14549344Y-14882060D02*
X14530296Y-14891584D01*
X14530296Y-14891584D02*
X14511248Y-14891584D01*
X14511248Y-14891584D02*
X14492201Y-14882060D01*
X14492201Y-14882060D02*
X14482677Y-14872536D01*
X14482677Y-14872536D02*
X14473153Y-14853488D01*
X14473153Y-14853488D02*
X14463629Y-14815393D01*
X14463629Y-14815393D02*
X14463629Y-14767774D01*
X14463629Y-14767774D02*
X14473153Y-14729679D01*
X14473153Y-14729679D02*
X14482677Y-14710631D01*
X14482677Y-14710631D02*
X14492201Y-14701108D01*
X14492201Y-14701108D02*
X14511248Y-14691584D01*
X14644582Y-14691584D02*
X14768391Y-14691584D01*
X14768391Y-14691584D02*
X14701725Y-14767774D01*
X14701725Y-14767774D02*
X14730296Y-14767774D01*
X14730296Y-14767774D02*
X14749344Y-14777298D01*
X14749344Y-14777298D02*
X14758867Y-14786822D01*
X14758867Y-14786822D02*
X14768391Y-14805869D01*
X14768391Y-14805869D02*
X14768391Y-14853488D01*
X14768391Y-14853488D02*
X14758867Y-14872536D01*
X14758867Y-14872536D02*
X14749344Y-14882060D01*
X14749344Y-14882060D02*
X14730296Y-14891584D01*
X14730296Y-14891584D02*
X14673153Y-14891584D01*
X14673153Y-14891584D02*
X14654106Y-14882060D01*
X14654106Y-14882060D02*
X14644582Y-14872536D01*
X14835058Y-14691584D02*
X14968391Y-14691584D01*
X14968391Y-14691584D02*
X14882677Y-14891584D01*
X15130296Y-14758250D02*
X15130296Y-14891584D01*
X15082677Y-14682060D02*
X15035058Y-14824917D01*
X15035058Y-14824917D02*
X15158867Y-14824917D01*
X15225534Y-14691584D02*
X15225534Y-14729679D01*
X15301725Y-14691584D02*
X15301725Y-14729679D01*
X15596963Y-14967774D02*
X15587439Y-14958250D01*
X15587439Y-14958250D02*
X15568391Y-14929679D01*
X15568391Y-14929679D02*
X15558868Y-14910631D01*
X15558868Y-14910631D02*
X15549344Y-14882060D01*
X15549344Y-14882060D02*
X15539820Y-14834441D01*
X15539820Y-14834441D02*
X15539820Y-14796346D01*
X15539820Y-14796346D02*
X15549344Y-14748727D01*
X15549344Y-14748727D02*
X15558868Y-14720155D01*
X15558868Y-14720155D02*
X15568391Y-14701108D01*
X15568391Y-14701108D02*
X15587439Y-14672536D01*
X15587439Y-14672536D02*
X15596963Y-14663012D01*
X15758868Y-14758250D02*
X15758868Y-14891584D01*
X15711248Y-14682060D02*
X15663629Y-14824917D01*
X15663629Y-14824917D02*
X15787439Y-14824917D01*
X15854106Y-14710631D02*
X15863629Y-14701108D01*
X15863629Y-14701108D02*
X15882677Y-14691584D01*
X15882677Y-14691584D02*
X15930296Y-14691584D01*
X15930296Y-14691584D02*
X15949344Y-14701108D01*
X15949344Y-14701108D02*
X15958868Y-14710631D01*
X15958868Y-14710631D02*
X15968391Y-14729679D01*
X15968391Y-14729679D02*
X15968391Y-14748727D01*
X15968391Y-14748727D02*
X15958868Y-14777298D01*
X15958868Y-14777298D02*
X15844582Y-14891584D01*
X15844582Y-14891584D02*
X15968391Y-14891584D01*
X16206487Y-14891584D02*
X16206487Y-14691584D01*
X16292201Y-14891584D02*
X16292201Y-14786822D01*
X16292201Y-14786822D02*
X16282677Y-14767774D01*
X16282677Y-14767774D02*
X16263630Y-14758250D01*
X16263630Y-14758250D02*
X16235058Y-14758250D01*
X16235058Y-14758250D02*
X16216010Y-14767774D01*
X16216010Y-14767774D02*
X16206487Y-14777298D01*
X16416010Y-14891584D02*
X16396963Y-14882060D01*
X16396963Y-14882060D02*
X16387439Y-14872536D01*
X16387439Y-14872536D02*
X16377915Y-14853488D01*
X16377915Y-14853488D02*
X16377915Y-14796346D01*
X16377915Y-14796346D02*
X16387439Y-14777298D01*
X16387439Y-14777298D02*
X16396963Y-14767774D01*
X16396963Y-14767774D02*
X16416010Y-14758250D01*
X16416010Y-14758250D02*
X16444582Y-14758250D01*
X16444582Y-14758250D02*
X16463630Y-14767774D01*
X16463630Y-14767774D02*
X16473153Y-14777298D01*
X16473153Y-14777298D02*
X16482677Y-14796346D01*
X16482677Y-14796346D02*
X16482677Y-14853488D01*
X16482677Y-14853488D02*
X16473153Y-14872536D01*
X16473153Y-14872536D02*
X16463630Y-14882060D01*
X16463630Y-14882060D02*
X16444582Y-14891584D01*
X16444582Y-14891584D02*
X16416010Y-14891584D01*
X16596963Y-14891584D02*
X16577915Y-14882060D01*
X16577915Y-14882060D02*
X16568391Y-14863012D01*
X16568391Y-14863012D02*
X16568391Y-14691584D01*
X16749344Y-14882060D02*
X16730296Y-14891584D01*
X16730296Y-14891584D02*
X16692201Y-14891584D01*
X16692201Y-14891584D02*
X16673153Y-14882060D01*
X16673153Y-14882060D02*
X16663630Y-14863012D01*
X16663630Y-14863012D02*
X16663630Y-14786822D01*
X16663630Y-14786822D02*
X16673153Y-14767774D01*
X16673153Y-14767774D02*
X16692201Y-14758250D01*
X16692201Y-14758250D02*
X16730296Y-14758250D01*
X16730296Y-14758250D02*
X16749344Y-14767774D01*
X16749344Y-14767774D02*
X16758868Y-14786822D01*
X16758868Y-14786822D02*
X16758868Y-14805869D01*
X16758868Y-14805869D02*
X16663630Y-14824917D01*
X16835058Y-14882060D02*
X16854106Y-14891584D01*
X16854106Y-14891584D02*
X16892201Y-14891584D01*
X16892201Y-14891584D02*
X16911249Y-14882060D01*
X16911249Y-14882060D02*
X16920773Y-14863012D01*
X16920773Y-14863012D02*
X16920773Y-14853488D01*
X16920773Y-14853488D02*
X16911249Y-14834441D01*
X16911249Y-14834441D02*
X16892201Y-14824917D01*
X16892201Y-14824917D02*
X16863630Y-14824917D01*
X16863630Y-14824917D02*
X16844582Y-14815393D01*
X16844582Y-14815393D02*
X16835058Y-14796346D01*
X16835058Y-14796346D02*
X16835058Y-14786822D01*
X16835058Y-14786822D02*
X16844582Y-14767774D01*
X16844582Y-14767774D02*
X16863630Y-14758250D01*
X16863630Y-14758250D02*
X16892201Y-14758250D01*
X16892201Y-14758250D02*
X16911249Y-14767774D01*
X16987439Y-14967774D02*
X16996963Y-14958250D01*
X16996963Y-14958250D02*
X17016011Y-14929679D01*
X17016011Y-14929679D02*
X17025534Y-14910631D01*
X17025534Y-14910631D02*
X17035058Y-14882060D01*
X17035058Y-14882060D02*
X17044582Y-14834441D01*
X17044582Y-14834441D02*
X17044582Y-14796346D01*
X17044582Y-14796346D02*
X17035058Y-14748727D01*
X17035058Y-14748727D02*
X17025534Y-14720155D01*
X17025534Y-14720155D02*
X17016011Y-14701108D01*
X17016011Y-14701108D02*
X16996963Y-14672536D01*
X16996963Y-14672536D02*
X16987439Y-14663012D01*
D10*
X12007256Y-15099456D02*
X12007256Y-15028744D01*
X11936544Y-15028744D01*
X11936544Y-15099456D01*
X12007256Y-15099456D01*
D11*
X12387439Y-15155584D02*
X12273153Y-15155584D01*
X12330296Y-15155584D02*
X12330296Y-14955584D01*
X12330296Y-14955584D02*
X12311248Y-14984155D01*
X12311248Y-14984155D02*
X12292201Y-15003203D01*
X12292201Y-15003203D02*
X12273153Y-15012727D01*
X12473153Y-15136536D02*
X12482677Y-15146060D01*
X12482677Y-15146060D02*
X12473153Y-15155584D01*
X12473153Y-15155584D02*
X12463629Y-15146060D01*
X12463629Y-15146060D02*
X12473153Y-15136536D01*
X12473153Y-15136536D02*
X12473153Y-15155584D01*
X12606486Y-14955584D02*
X12625534Y-14955584D01*
X12625534Y-14955584D02*
X12644582Y-14965108D01*
X12644582Y-14965108D02*
X12654105Y-14974631D01*
X12654105Y-14974631D02*
X12663629Y-14993679D01*
X12663629Y-14993679D02*
X12673153Y-15031774D01*
X12673153Y-15031774D02*
X12673153Y-15079393D01*
X12673153Y-15079393D02*
X12663629Y-15117488D01*
X12663629Y-15117488D02*
X12654105Y-15136536D01*
X12654105Y-15136536D02*
X12644582Y-15146060D01*
X12644582Y-15146060D02*
X12625534Y-15155584D01*
X12625534Y-15155584D02*
X12606486Y-15155584D01*
X12606486Y-15155584D02*
X12587439Y-15146060D01*
X12587439Y-15146060D02*
X12577915Y-15136536D01*
X12577915Y-15136536D02*
X12568391Y-15117488D01*
X12568391Y-15117488D02*
X12558867Y-15079393D01*
X12558867Y-15079393D02*
X12558867Y-15031774D01*
X12558867Y-15031774D02*
X12568391Y-14993679D01*
X12568391Y-14993679D02*
X12577915Y-14974631D01*
X12577915Y-14974631D02*
X12587439Y-14965108D01*
X12587439Y-14965108D02*
X12606486Y-14955584D01*
X12796962Y-14955584D02*
X12816010Y-14955584D01*
X12816010Y-14955584D02*
X12835058Y-14965108D01*
X12835058Y-14965108D02*
X12844582Y-14974631D01*
X12844582Y-14974631D02*
X12854105Y-14993679D01*
X12854105Y-14993679D02*
X12863629Y-15031774D01*
X12863629Y-15031774D02*
X12863629Y-15079393D01*
X12863629Y-15079393D02*
X12854105Y-15117488D01*
X12854105Y-15117488D02*
X12844582Y-15136536D01*
X12844582Y-15136536D02*
X12835058Y-15146060D01*
X12835058Y-15146060D02*
X12816010Y-15155584D01*
X12816010Y-15155584D02*
X12796962Y-15155584D01*
X12796962Y-15155584D02*
X12777915Y-15146060D01*
X12777915Y-15146060D02*
X12768391Y-15136536D01*
X12768391Y-15136536D02*
X12758867Y-15117488D01*
X12758867Y-15117488D02*
X12749343Y-15079393D01*
X12749343Y-15079393D02*
X12749343Y-15031774D01*
X12749343Y-15031774D02*
X12758867Y-14993679D01*
X12758867Y-14993679D02*
X12768391Y-14974631D01*
X12768391Y-14974631D02*
X12777915Y-14965108D01*
X12777915Y-14965108D02*
X12796962Y-14955584D01*
X12987439Y-14955584D02*
X13006486Y-14955584D01*
X13006486Y-14955584D02*
X13025534Y-14965108D01*
X13025534Y-14965108D02*
X13035058Y-14974631D01*
X13035058Y-14974631D02*
X13044582Y-14993679D01*
X13044582Y-14993679D02*
X13054105Y-15031774D01*
X13054105Y-15031774D02*
X13054105Y-15079393D01*
X13054105Y-15079393D02*
X13044582Y-15117488D01*
X13044582Y-15117488D02*
X13035058Y-15136536D01*
X13035058Y-15136536D02*
X13025534Y-15146060D01*
X13025534Y-15146060D02*
X13006486Y-15155584D01*
X13006486Y-15155584D02*
X12987439Y-15155584D01*
X12987439Y-15155584D02*
X12968391Y-15146060D01*
X12968391Y-15146060D02*
X12958867Y-15136536D01*
X12958867Y-15136536D02*
X12949343Y-15117488D01*
X12949343Y-15117488D02*
X12939820Y-15079393D01*
X12939820Y-15079393D02*
X12939820Y-15031774D01*
X12939820Y-15031774D02*
X12949343Y-14993679D01*
X12949343Y-14993679D02*
X12958867Y-14974631D01*
X12958867Y-14974631D02*
X12968391Y-14965108D01*
X12968391Y-14965108D02*
X12987439Y-14955584D01*
X13139820Y-15155584D02*
X13139820Y-15022250D01*
X13139820Y-15041298D02*
X13149343Y-15031774D01*
X13149343Y-15031774D02*
X13168391Y-15022250D01*
X13168391Y-15022250D02*
X13196963Y-15022250D01*
X13196963Y-15022250D02*
X13216010Y-15031774D01*
X13216010Y-15031774D02*
X13225534Y-15050822D01*
X13225534Y-15050822D02*
X13225534Y-15155584D01*
X13225534Y-15050822D02*
X13235058Y-15031774D01*
X13235058Y-15031774D02*
X13254105Y-15022250D01*
X13254105Y-15022250D02*
X13282677Y-15022250D01*
X13282677Y-15022250D02*
X13301724Y-15031774D01*
X13301724Y-15031774D02*
X13311248Y-15050822D01*
X13311248Y-15050822D02*
X13311248Y-15155584D01*
X13406486Y-15155584D02*
X13406486Y-15022250D01*
X13406486Y-15041298D02*
X13416010Y-15031774D01*
X13416010Y-15031774D02*
X13435058Y-15022250D01*
X13435058Y-15022250D02*
X13463629Y-15022250D01*
X13463629Y-15022250D02*
X13482677Y-15031774D01*
X13482677Y-15031774D02*
X13492201Y-15050822D01*
X13492201Y-15050822D02*
X13492201Y-15155584D01*
X13492201Y-15050822D02*
X13501724Y-15031774D01*
X13501724Y-15031774D02*
X13520772Y-15022250D01*
X13520772Y-15022250D02*
X13549343Y-15022250D01*
X13549343Y-15022250D02*
X13568391Y-15031774D01*
X13568391Y-15031774D02*
X13577915Y-15050822D01*
X13577915Y-15050822D02*
X13577915Y-15155584D01*
X13968391Y-14946060D02*
X13796963Y-15203203D01*
X14225534Y-14955584D02*
X14244582Y-14955584D01*
X14244582Y-14955584D02*
X14263629Y-14965108D01*
X14263629Y-14965108D02*
X14273153Y-14974631D01*
X14273153Y-14974631D02*
X14282677Y-14993679D01*
X14282677Y-14993679D02*
X14292201Y-15031774D01*
X14292201Y-15031774D02*
X14292201Y-15079393D01*
X14292201Y-15079393D02*
X14282677Y-15117488D01*
X14282677Y-15117488D02*
X14273153Y-15136536D01*
X14273153Y-15136536D02*
X14263629Y-15146060D01*
X14263629Y-15146060D02*
X14244582Y-15155584D01*
X14244582Y-15155584D02*
X14225534Y-15155584D01*
X14225534Y-15155584D02*
X14206486Y-15146060D01*
X14206486Y-15146060D02*
X14196963Y-15136536D01*
X14196963Y-15136536D02*
X14187439Y-15117488D01*
X14187439Y-15117488D02*
X14177915Y-15079393D01*
X14177915Y-15079393D02*
X14177915Y-15031774D01*
X14177915Y-15031774D02*
X14187439Y-14993679D01*
X14187439Y-14993679D02*
X14196963Y-14974631D01*
X14196963Y-14974631D02*
X14206486Y-14965108D01*
X14206486Y-14965108D02*
X14225534Y-14955584D01*
X14377915Y-15136536D02*
X14387439Y-15146060D01*
X14387439Y-15146060D02*
X14377915Y-15155584D01*
X14377915Y-15155584D02*
X14368391Y-15146060D01*
X14368391Y-15146060D02*
X14377915Y-15136536D01*
X14377915Y-15136536D02*
X14377915Y-15155584D01*
X14511248Y-14955584D02*
X14530296Y-14955584D01*
X14530296Y-14955584D02*
X14549344Y-14965108D01*
X14549344Y-14965108D02*
X14558867Y-14974631D01*
X14558867Y-14974631D02*
X14568391Y-14993679D01*
X14568391Y-14993679D02*
X14577915Y-15031774D01*
X14577915Y-15031774D02*
X14577915Y-15079393D01*
X14577915Y-15079393D02*
X14568391Y-15117488D01*
X14568391Y-15117488D02*
X14558867Y-15136536D01*
X14558867Y-15136536D02*
X14549344Y-15146060D01*
X14549344Y-15146060D02*
X14530296Y-15155584D01*
X14530296Y-15155584D02*
X14511248Y-15155584D01*
X14511248Y-15155584D02*
X14492201Y-15146060D01*
X14492201Y-15146060D02*
X14482677Y-15136536D01*
X14482677Y-15136536D02*
X14473153Y-15117488D01*
X14473153Y-15117488D02*
X14463629Y-15079393D01*
X14463629Y-15079393D02*
X14463629Y-15031774D01*
X14463629Y-15031774D02*
X14473153Y-14993679D01*
X14473153Y-14993679D02*
X14482677Y-14974631D01*
X14482677Y-14974631D02*
X14492201Y-14965108D01*
X14492201Y-14965108D02*
X14511248Y-14955584D01*
X14644582Y-14955584D02*
X14768391Y-14955584D01*
X14768391Y-14955584D02*
X14701725Y-15031774D01*
X14701725Y-15031774D02*
X14730296Y-15031774D01*
X14730296Y-15031774D02*
X14749344Y-15041298D01*
X14749344Y-15041298D02*
X14758867Y-15050822D01*
X14758867Y-15050822D02*
X14768391Y-15069869D01*
X14768391Y-15069869D02*
X14768391Y-15117488D01*
X14768391Y-15117488D02*
X14758867Y-15136536D01*
X14758867Y-15136536D02*
X14749344Y-15146060D01*
X14749344Y-15146060D02*
X14730296Y-15155584D01*
X14730296Y-15155584D02*
X14673153Y-15155584D01*
X14673153Y-15155584D02*
X14654106Y-15146060D01*
X14654106Y-15146060D02*
X14644582Y-15136536D01*
X14863629Y-15155584D02*
X14901725Y-15155584D01*
X14901725Y-15155584D02*
X14920772Y-15146060D01*
X14920772Y-15146060D02*
X14930296Y-15136536D01*
X14930296Y-15136536D02*
X14949344Y-15107965D01*
X14949344Y-15107965D02*
X14958867Y-15069869D01*
X14958867Y-15069869D02*
X14958867Y-14993679D01*
X14958867Y-14993679D02*
X14949344Y-14974631D01*
X14949344Y-14974631D02*
X14939820Y-14965108D01*
X14939820Y-14965108D02*
X14920772Y-14955584D01*
X14920772Y-14955584D02*
X14882677Y-14955584D01*
X14882677Y-14955584D02*
X14863629Y-14965108D01*
X14863629Y-14965108D02*
X14854106Y-14974631D01*
X14854106Y-14974631D02*
X14844582Y-14993679D01*
X14844582Y-14993679D02*
X14844582Y-15041298D01*
X14844582Y-15041298D02*
X14854106Y-15060346D01*
X14854106Y-15060346D02*
X14863629Y-15069869D01*
X14863629Y-15069869D02*
X14882677Y-15079393D01*
X14882677Y-15079393D02*
X14920772Y-15079393D01*
X14920772Y-15079393D02*
X14939820Y-15069869D01*
X14939820Y-15069869D02*
X14949344Y-15060346D01*
X14949344Y-15060346D02*
X14958867Y-15041298D01*
X15130296Y-15022250D02*
X15130296Y-15155584D01*
X15082677Y-14946060D02*
X15035058Y-15088917D01*
X15035058Y-15088917D02*
X15158867Y-15088917D01*
X15225534Y-14955584D02*
X15225534Y-14993679D01*
X15301725Y-14955584D02*
X15301725Y-14993679D01*
X15596963Y-15231774D02*
X15587439Y-15222250D01*
X15587439Y-15222250D02*
X15568391Y-15193679D01*
X15568391Y-15193679D02*
X15558868Y-15174631D01*
X15558868Y-15174631D02*
X15549344Y-15146060D01*
X15549344Y-15146060D02*
X15539820Y-15098441D01*
X15539820Y-15098441D02*
X15539820Y-15060346D01*
X15539820Y-15060346D02*
X15549344Y-15012727D01*
X15549344Y-15012727D02*
X15558868Y-14984155D01*
X15558868Y-14984155D02*
X15568391Y-14965108D01*
X15568391Y-14965108D02*
X15587439Y-14936536D01*
X15587439Y-14936536D02*
X15596963Y-14927012D01*
X15758868Y-14955584D02*
X15720772Y-14955584D01*
X15720772Y-14955584D02*
X15701725Y-14965108D01*
X15701725Y-14965108D02*
X15692201Y-14974631D01*
X15692201Y-14974631D02*
X15673153Y-15003203D01*
X15673153Y-15003203D02*
X15663629Y-15041298D01*
X15663629Y-15041298D02*
X15663629Y-15117488D01*
X15663629Y-15117488D02*
X15673153Y-15136536D01*
X15673153Y-15136536D02*
X15682677Y-15146060D01*
X15682677Y-15146060D02*
X15701725Y-15155584D01*
X15701725Y-15155584D02*
X15739820Y-15155584D01*
X15739820Y-15155584D02*
X15758868Y-15146060D01*
X15758868Y-15146060D02*
X15768391Y-15136536D01*
X15768391Y-15136536D02*
X15777915Y-15117488D01*
X15777915Y-15117488D02*
X15777915Y-15069869D01*
X15777915Y-15069869D02*
X15768391Y-15050822D01*
X15768391Y-15050822D02*
X15758868Y-15041298D01*
X15758868Y-15041298D02*
X15739820Y-15031774D01*
X15739820Y-15031774D02*
X15701725Y-15031774D01*
X15701725Y-15031774D02*
X15682677Y-15041298D01*
X15682677Y-15041298D02*
X15673153Y-15050822D01*
X15673153Y-15050822D02*
X15663629Y-15069869D01*
X15949344Y-14955584D02*
X15911248Y-14955584D01*
X15911248Y-14955584D02*
X15892201Y-14965108D01*
X15892201Y-14965108D02*
X15882677Y-14974631D01*
X15882677Y-14974631D02*
X15863629Y-15003203D01*
X15863629Y-15003203D02*
X15854106Y-15041298D01*
X15854106Y-15041298D02*
X15854106Y-15117488D01*
X15854106Y-15117488D02*
X15863629Y-15136536D01*
X15863629Y-15136536D02*
X15873153Y-15146060D01*
X15873153Y-15146060D02*
X15892201Y-15155584D01*
X15892201Y-15155584D02*
X15930296Y-15155584D01*
X15930296Y-15155584D02*
X15949344Y-15146060D01*
X15949344Y-15146060D02*
X15958868Y-15136536D01*
X15958868Y-15136536D02*
X15968391Y-15117488D01*
X15968391Y-15117488D02*
X15968391Y-15069869D01*
X15968391Y-15069869D02*
X15958868Y-15050822D01*
X15958868Y-15050822D02*
X15949344Y-15041298D01*
X15949344Y-15041298D02*
X15930296Y-15031774D01*
X15930296Y-15031774D02*
X15892201Y-15031774D01*
X15892201Y-15031774D02*
X15873153Y-15041298D01*
X15873153Y-15041298D02*
X15863629Y-15050822D01*
X15863629Y-15050822D02*
X15854106Y-15069869D01*
X16206487Y-15155584D02*
X16206487Y-14955584D01*
X16292201Y-15155584D02*
X16292201Y-15050822D01*
X16292201Y-15050822D02*
X16282677Y-15031774D01*
X16282677Y-15031774D02*
X16263630Y-15022250D01*
X16263630Y-15022250D02*
X16235058Y-15022250D01*
X16235058Y-15022250D02*
X16216010Y-15031774D01*
X16216010Y-15031774D02*
X16206487Y-15041298D01*
X16416010Y-15155584D02*
X16396963Y-15146060D01*
X16396963Y-15146060D02*
X16387439Y-15136536D01*
X16387439Y-15136536D02*
X16377915Y-15117488D01*
X16377915Y-15117488D02*
X16377915Y-15060346D01*
X16377915Y-15060346D02*
X16387439Y-15041298D01*
X16387439Y-15041298D02*
X16396963Y-15031774D01*
X16396963Y-15031774D02*
X16416010Y-15022250D01*
X16416010Y-15022250D02*
X16444582Y-15022250D01*
X16444582Y-15022250D02*
X16463630Y-15031774D01*
X16463630Y-15031774D02*
X16473153Y-15041298D01*
X16473153Y-15041298D02*
X16482677Y-15060346D01*
X16482677Y-15060346D02*
X16482677Y-15117488D01*
X16482677Y-15117488D02*
X16473153Y-15136536D01*
X16473153Y-15136536D02*
X16463630Y-15146060D01*
X16463630Y-15146060D02*
X16444582Y-15155584D01*
X16444582Y-15155584D02*
X16416010Y-15155584D01*
X16596963Y-15155584D02*
X16577915Y-15146060D01*
X16577915Y-15146060D02*
X16568391Y-15127012D01*
X16568391Y-15127012D02*
X16568391Y-14955584D01*
X16749344Y-15146060D02*
X16730296Y-15155584D01*
X16730296Y-15155584D02*
X16692201Y-15155584D01*
X16692201Y-15155584D02*
X16673153Y-15146060D01*
X16673153Y-15146060D02*
X16663630Y-15127012D01*
X16663630Y-15127012D02*
X16663630Y-15050822D01*
X16663630Y-15050822D02*
X16673153Y-15031774D01*
X16673153Y-15031774D02*
X16692201Y-15022250D01*
X16692201Y-15022250D02*
X16730296Y-15022250D01*
X16730296Y-15022250D02*
X16749344Y-15031774D01*
X16749344Y-15031774D02*
X16758868Y-15050822D01*
X16758868Y-15050822D02*
X16758868Y-15069869D01*
X16758868Y-15069869D02*
X16663630Y-15088917D01*
X16835058Y-15146060D02*
X16854106Y-15155584D01*
X16854106Y-15155584D02*
X16892201Y-15155584D01*
X16892201Y-15155584D02*
X16911249Y-15146060D01*
X16911249Y-15146060D02*
X16920773Y-15127012D01*
X16920773Y-15127012D02*
X16920773Y-15117488D01*
X16920773Y-15117488D02*
X16911249Y-15098441D01*
X16911249Y-15098441D02*
X16892201Y-15088917D01*
X16892201Y-15088917D02*
X16863630Y-15088917D01*
X16863630Y-15088917D02*
X16844582Y-15079393D01*
X16844582Y-15079393D02*
X16835058Y-15060346D01*
X16835058Y-15060346D02*
X16835058Y-15050822D01*
X16835058Y-15050822D02*
X16844582Y-15031774D01*
X16844582Y-15031774D02*
X16863630Y-15022250D01*
X16863630Y-15022250D02*
X16892201Y-15022250D01*
X16892201Y-15022250D02*
X16911249Y-15031774D01*
X16987439Y-15231774D02*
X16996963Y-15222250D01*
X16996963Y-15222250D02*
X17016011Y-15193679D01*
X17016011Y-15193679D02*
X17025534Y-15174631D01*
X17025534Y-15174631D02*
X17035058Y-15146060D01*
X17035058Y-15146060D02*
X17044582Y-15098441D01*
X17044582Y-15098441D02*
X17044582Y-15060346D01*
X17044582Y-15060346D02*
X17035058Y-15012727D01*
X17035058Y-15012727D02*
X17025534Y-14984155D01*
X17025534Y-14984155D02*
X17016011Y-14965108D01*
X17016011Y-14965108D02*
X16996963Y-14936536D01*
X16996963Y-14936536D02*
X16987439Y-14927012D01*
M02*
