M48
; DRILL file {KiCad 7.0.7} date Thu Apr 25 01:55:26 2024
; FORMAT={-:-/ absolute / metric / decimal}
; #@! TF.CreationDate,2024-04-25T01:55:26+02:00
; #@! TF.GenerationSoftware,Kicad,Pcbnew,7.0.7
; #@! TF.FileFunction,Plated,1,2,PTH
FMAT,2
METRIC
; #@! TA.AperFunction,Plated,PTH,ComponentDrill
T1C0.300
; #@! TA.AperFunction,Plated,PTH,ViaDrill
T2C0.400
; #@! TA.AperFunction,Plated,PTH,ComponentDrill
T3C0.950
; #@! TA.AperFunction,Plated,PTH,ComponentDrill
T4C1.000
%
G90
G05
T1
X165.332Y-101.498
X165.332Y-103.218
X165.811Y-102.358
X166.291Y-101.498
X166.291Y-103.218
T2
X125.503Y-93.23
X128.397Y-104.013
X128.799Y-93.816
X131.098Y-100.848
X131.098Y-103.886
X133.985Y-93.98
X137.541Y-106.807
X137.795Y-87.884
X139.065Y-99.314
X145.138Y-91.96
X145.57Y-84.34
X149.987Y-87.63
X150.749Y-97.409
X153.545Y-105.372
X154.942Y-100.698
X155.094Y-93.992
X155.349Y-102.755
X155.448Y-88.519
X157.254Y-93.992
X157.507Y-128.536
X159.997Y-105.016
X161.724Y-122.644
X162.003Y-95.415
X162.333Y-128.536
X164.112Y-92.087
X166.624Y-89.281
X166.778Y-128.536
X167.159Y-104.406
X167.386Y-90.043
X167.413Y-117.513
X169.445Y-107.709
T3
X123.769Y-131.457
X126.269Y-131.457
X128.769Y-131.457
X131.269Y-131.457
X131.981Y-91.913
X131.981Y-94.413
X131.981Y-96.913
X131.981Y-99.413
X131.981Y-105.502
X131.981Y-108.002
X131.981Y-110.502
X131.981Y-113.002
X131.981Y-119.138
X131.981Y-121.638
X131.981Y-124.138
X140.853Y-105.483
X140.853Y-107.983
X140.853Y-110.483
X140.853Y-112.983
X140.87Y-91.913
X140.87Y-94.413
X140.87Y-96.913
X140.87Y-99.413
X140.87Y-119.178
X140.87Y-121.678
X140.87Y-124.178
X140.87Y-126.678
X149.506Y-122.822
X149.506Y-125.322
X149.506Y-127.822
X149.538Y-109.276
X149.538Y-111.776
X149.538Y-114.276
X149.538Y-116.776
X160.762Y-94.246
X161.497Y-79.248
X163.262Y-94.246
X163.997Y-79.248
X165.762Y-94.246
X166.497Y-79.248
X168.262Y-94.246
X168.997Y-79.248
T4
X123.328Y-117.888
X123.328Y-120.388
X123.344Y-91.96
X123.344Y-94.46
X123.344Y-100.636
X123.344Y-103.136
X123.344Y-109.272
X123.344Y-111.772
X126.498Y-85.407
X129.038Y-85.407
X131.578Y-85.407
X134.118Y-85.407
X135.638Y-133.667
X136.658Y-85.407
X138.178Y-133.667
X139.198Y-85.407
X140.718Y-133.667
X141.738Y-85.407
X143.258Y-133.667
X144.278Y-85.407
X145.798Y-133.667
X146.818Y-85.407
X148.338Y-133.667
X149.358Y-85.407
X149.489Y-91.853
X149.489Y-94.353
X149.506Y-100.596
X149.506Y-103.096
X150.878Y-133.667
X153.418Y-85.407
X153.418Y-133.667
X155.958Y-85.407
X158.498Y-85.407
X158.498Y-133.667
X158.778Y-124.544
X158.778Y-127.084
X160.147Y-71.628
X160.147Y-74.168
X161.038Y-85.407
X161.038Y-133.667
X162.687Y-71.628
X162.687Y-74.168
X163.095Y-124.544
X163.095Y-127.084
X163.578Y-85.407
X163.578Y-133.667
X165.227Y-71.628
X165.227Y-74.168
X166.118Y-85.407
X166.118Y-133.667
X167.463Y-124.544
X167.463Y-127.084
X167.767Y-71.628
X167.767Y-74.168
X168.658Y-85.407
X168.658Y-133.667
X170.307Y-71.628
X170.307Y-74.168
X170.843Y-101.505
X170.843Y-104.005
X170.843Y-109.994
X170.843Y-112.494
X171.198Y-85.407
X171.198Y-133.667
X171.986Y-124.539
X171.986Y-127.079
T0
M30
